<svg xmlns="http://www.w3.org/2000/svg" width="78" height="78" fill="none" viewBox="0 0 78 78">
    <g filter="url(#filter0_d)">
        <rect width="70" height="70" x="4" fill="url(#paint0_linear)" rx="5"/>
    </g>
    <path fill="#fff" d="M51.25 26.25C51.25 19.497 45.755 14 39 14s-12.25 5.496-12.25 12.25c0 4.01 1.935 7.575 4.92 9.81C23.696 39.04 18 46.738 18 55.74h3.761C21.761 46.234 29.495 38.5 39 38.5c6.755 0 12.25-5.495 12.25-12.25zm-20.74 0c0-4.68 3.809-8.489 8.49-8.489 4.68 0 8.489 3.808 8.489 8.49 0 4.68-3.808 8.489-8.49 8.489-4.68 0-8.488-3.808-8.488-8.49z"/>
    <path fill="#fff" d="M51.639 39.277c-2.594 0-5.036 1.219-6.608 3.24h-9.969l-4.261 4.262v1.815l4.275 4.166h9.955c1.572 2.022 4.014 3.24 6.608 3.24C56.249 56 60 52.25 60 47.64c0-4.612-3.75-8.363-8.361-8.363zm0 12.962c-1.636 0-3.163-.881-3.984-2.302L47.11 49h-4.113l-2.071-1.968L39.057 49h-2.451l-1.371-1.335 1.385-1.385h10.49l.544-.938c.822-1.42 2.348-2.303 3.985-2.303 2.536 0 4.6 2.064 4.6 4.601 0 2.536-2.064 4.6-4.6 4.6z"/>
    <path fill="#fff" d="M54.877 47.64c0 .895-.725 1.62-1.62 1.62-.895 0-1.62-.725-1.62-1.62 0-.895.725-1.62 1.62-1.62.895 0 1.62.725 1.62 1.62z"/>
    <defs>
        <linearGradient id="paint0_linear" x1="39" x2="39" y1="-7.712" y2="73.559" gradientUnits="userSpaceOnUse">
            <stop stop-color="#FF61B2"/>
            <stop offset=".509" stop-color="#E20074"/>
            <stop offset="1" stop-color="#650038"/>
        </linearGradient>
        <filter id="filter0_d" width="78" height="78" x="0" y="0" color-interpolation-filters="sRGB" filterUnits="userSpaceOnUse">
            <feFlood flood-opacity="0" result="BackgroundImageFix"/>
            <feColorMatrix in="SourceAlpha" values="0 0 0 0 0 0 0 0 0 0 0 0 0 0 0 0 0 0 127 0"/>
            <feOffset dy="4"/>
            <feGaussianBlur stdDeviation="2"/>
            <feColorMatrix values="0 0 0 0 0 0 0 0 0 0 0 0 0 0 0 0 0 0 0.25 0"/>
            <feBlend in2="BackgroundImageFix" result="effect1_dropShadow"/>
            <feBlend in="SourceGraphic" in2="effect1_dropShadow" result="shape"/>
        </filter>
    </defs>
</svg>
