<svg xmlns="http://www.w3.org/2000/svg" width="800" height="50" fill="none" viewBox="0 0 800 50">
    <rect width="800" height="50" fill="#999EB7" opacity=".2" rx="25"/>
    <path fill="#fff" d="M88.377 19.523v1.368H84.51V31h-1.578V20.89h-3.868v-1.367h9.313zm0 6.297h3.922v1.446h-3.922V25.82zm6.789-6.297l3.297 9.774 3.258-9.774h1.742L99.275 31h-1.648l-4.18-11.477h1.719zm9.469 9.25c0 .407.148.727.445.961.297.235.649.352 1.055.352.495 0 .974-.115 1.437-.344.782-.38 1.172-1.002 1.172-1.867v-1.133c-.172.11-.393.2-.664.274-.271.073-.536.125-.797.156l-.851.11c-.511.067-.894.174-1.149.32-.432.244-.648.635-.648 1.171zm3.406-2.843c.323-.042.539-.177.648-.407.063-.125.094-.304.094-.539 0-.479-.172-.825-.515-1.039-.339-.218-.826-.328-1.461-.328-.735 0-1.256.198-1.563.594-.172.219-.284.544-.336.977h-1.312c.026-1.032.359-1.748 1-2.149.646-.406 1.393-.61 2.242-.61.984 0 1.784.188 2.398.563.61.375.914.959.914 1.75v4.82c0 .146.029.264.086.352.063.089.19.133.383.133.063 0 .133-.003.211-.008.078-.01.162-.023.25-.039v1.04c-.219.062-.385.1-.5.116-.115.016-.271.024-.469.024-.484 0-.836-.172-1.054-.516-.115-.182-.196-.44-.243-.773-.286.375-.697.7-1.234.976-.536.276-1.128.414-1.773.414-.776 0-1.412-.234-1.907-.703-.489-.474-.734-1.065-.734-1.773 0-.776.242-1.378.727-1.805.484-.427 1.119-.69 1.906-.79l2.242-.28zm5.828-3.297v5.555c0 .427.068.776.203 1.046.25.5.716.75 1.399.75.979 0 1.646-.437 2-1.312.192-.469.289-1.112.289-1.93v-4.11h1.406V31h-1.328l.016-1.234c-.183.317-.409.586-.68.804-.537.438-1.188.657-1.953.657-1.193 0-2.006-.399-2.438-1.196-.234-.427-.351-.997-.351-1.71v-5.688h1.437zm7.539-3.11h1.406V31h-1.406V19.523zm3.805.774h1.422v2.336h1.336v1.148h-1.336v5.461c0 .292.099.487.297.586.109.057.291.086.547.086h.218c.078-.005.17-.013.274-.023V31c-.162.047-.331.08-.508.102-.172.02-.359.03-.563.03-.656 0-1.101-.166-1.336-.5-.234-.338-.351-.775-.351-1.312v-5.539h-1.133v-1.148h1.133v-2.336zm8.625 2.336h1.336v1.187c.396-.49.815-.84 1.258-1.054.442-.214.935-.32 1.476-.32 1.188 0 1.99.413 2.406 1.241.23.454.344 1.102.344 1.946V31h-1.429v-5.273c0-.51-.076-.922-.227-1.235-.25-.52-.703-.781-1.359-.781-.334 0-.607.034-.821.102-.385.114-.724.343-1.015.687-.235.276-.388.563-.461.86-.068.291-.102.71-.102 1.257V31h-1.406v-8.367zm12.226 7.46c.933 0 1.571-.35 1.915-1.054.348-.708.523-1.495.523-2.36 0-.78-.125-1.416-.375-1.906-.396-.77-1.078-1.156-2.047-1.156-.859 0-1.484.328-1.875.985-.391.656-.586 1.447-.586 2.375 0 .89.195 1.632.586 2.226.391.594 1.01.89 1.859.89zm.055-7.702c1.078 0 1.99.359 2.735 1.078.744.718 1.117 1.776 1.117 3.172 0 1.349-.328 2.463-.985 3.343-.656.88-1.674 1.32-3.054 1.32-1.151 0-2.065-.387-2.743-1.163-.677-.782-1.015-1.828-1.015-3.141 0-1.406.357-2.526 1.07-3.36.714-.833 1.672-1.25 2.875-1.25zm6.18.242l1.609 6.594 1.633-6.594h1.578l1.641 6.555 1.711-6.555h1.406L159.447 31h-1.461l-1.703-6.477L154.635 31h-1.461l-2.414-8.367h1.539zm18.687 7.46c.933 0 1.571-.35 1.914-1.054.349-.708.524-1.495.524-2.36 0-.78-.125-1.416-.375-1.906-.396-.77-1.078-1.156-2.047-1.156-.859 0-1.484.328-1.875.985-.391.656-.586 1.447-.586 2.375 0 .89.195 1.632.586 2.226.391.594 1.01.89 1.859.89zm.055-7.702c1.078 0 1.99.359 2.734 1.078.745.718 1.118 1.776 1.118 3.172 0 1.349-.329 2.463-.985 3.343-.656.88-1.674 1.32-3.054 1.32-1.152 0-2.066-.387-2.743-1.163-.677-.782-1.015-1.828-1.015-3.141 0-1.406.356-2.526 1.07-3.36.714-.833 1.672-1.25 2.875-1.25zm5.883-1.032c.021-.583.122-1.01.305-1.28.328-.48.96-.72 1.898-.72.088 0 .18.003.273.008.094.005.201.013.321.024v1.28c-.146-.01-.253-.015-.321-.015-.062-.005-.122-.008-.179-.008-.427 0-.683.112-.766.336-.083.22-.125.782-.125 1.688h1.391v1.11h-1.407V31h-1.39v-7.219h-1.164v-1.11h1.164V21.36zm4.172 0c.021-.583.122-1.01.304-1.28.329-.48.961-.72 1.899-.72.088 0 .18.003.273.008.094.005.201.013.321.024v1.28c-.146-.01-.253-.015-.321-.015-.062-.005-.122-.008-.179-.008-.428 0-.683.112-.766.336-.083.22-.125.782-.125 1.688h1.391v1.11h-1.407V31h-1.39v-7.219h-1.164v-1.11h1.164V21.36zm7.586 1.086c.593 0 1.169.14 1.726.422.557.276.982.636 1.274 1.078.281.422.468.914.562 1.477.083.385.125 1 .125 1.844h-6.133c.026.849.227 1.53.602 2.047.375.51.956.765 1.742.765.734 0 1.32-.242 1.758-.726.25-.282.427-.607.531-.977h1.383c-.037.307-.159.651-.367 1.031-.203.375-.433.683-.688.922-.427.417-.955.698-1.586.844-.338.083-.721.125-1.148.125-1.042 0-1.925-.378-2.649-1.133-.724-.76-1.085-1.823-1.085-3.187 0-1.344.364-2.435 1.093-3.274.729-.838 1.683-1.258 2.86-1.258zm2.242 3.703c-.057-.609-.19-1.096-.399-1.46-.385-.678-1.028-1.016-1.929-1.016-.646 0-1.188.234-1.625.703-.438.463-.67 1.055-.696 1.773h4.649zm3.219-3.515h1.336v1.445c.109-.281.377-.622.804-1.023.427-.407.919-.61 1.477-.61.026 0 .07.003.133.008.062.005.169.016.32.031v1.485c-.083-.016-.162-.026-.234-.032-.068-.005-.144-.007-.227-.007-.708 0-1.253.229-1.633.687-.38.453-.57.977-.57 1.57V31h-1.406v-8.367zm6.125 5.742c.041.469.158.828.351 1.078.354.453.969.68 1.844.68.521 0 .979-.112 1.375-.336.396-.23.594-.58.594-1.055 0-.36-.159-.633-.477-.82-.203-.115-.604-.248-1.203-.399l-1.117-.28c-.714-.178-1.24-.376-1.578-.595-.605-.38-.907-.906-.907-1.578 0-.791.284-1.432.852-1.922.573-.49 1.341-.734 2.305-.734 1.26 0 2.169.37 2.726 1.11.349.468.518.973.508 1.515h-1.328c-.026-.318-.138-.607-.336-.867-.323-.37-.883-.555-1.68-.555-.531 0-.935.102-1.211.305-.271.203-.406.471-.406.805 0 .364.18.656.539.875.208.13.516.244.922.343l.93.227c1.01.245 1.687.482 2.031.71.547.36.82.925.82 1.696 0 .745-.284 1.388-.851 1.93-.563.541-1.422.812-2.578.812-1.245 0-2.128-.28-2.649-.843-.515-.568-.792-1.269-.828-2.102h1.352zm12.695.398c0 .407.148.727.445.961.297.235.649.352 1.055.352.495 0 .974-.115 1.437-.344.782-.38 1.172-1.002 1.172-1.867v-1.133c-.172.11-.393.2-.664.274-.271.073-.536.125-.797.156l-.851.11c-.511.067-.893.174-1.149.32-.432.244-.648.635-.648 1.171zm3.406-2.843c.323-.042.539-.177.649-.407.062-.125.093-.304.093-.539 0-.479-.172-.825-.515-1.039-.339-.218-.826-.328-1.461-.328-.735 0-1.255.198-1.563.594-.172.219-.284.544-.336.977h-1.312c.026-1.032.359-1.748 1-2.149.646-.406 1.393-.61 2.242-.61.984 0 1.784.188 2.398.563.61.375.915.959.915 1.75v4.82c0 .146.028.264.085.352.063.089.191.133.383.133.063 0 .133-.003.211-.008.078-.01.162-.023.25-.039v1.04c-.219.062-.385.1-.5.116-.114.016-.271.024-.469.024-.484 0-.835-.172-1.054-.516-.115-.182-.196-.44-.242-.773-.287.375-.698.7-1.235.976-.536.276-1.127.414-1.773.414-.776 0-1.412-.234-1.906-.703-.49-.474-.735-1.065-.735-1.773 0-.776.242-1.378.727-1.805.484-.427 1.119-.69 1.906-.79l2.242-.28zm4.422-3.297h1.336v1.187c.396-.49.815-.84 1.258-1.054.442-.214.935-.32 1.476-.32 1.188 0 1.99.413 2.407 1.241.229.454.343 1.102.343 1.946V31h-1.429v-5.273c0-.51-.076-.922-.227-1.235-.25-.52-.703-.781-1.359-.781-.334 0-.607.034-.821.102-.385.114-.724.343-1.015.687-.235.276-.388.563-.461.86-.068.291-.102.71-.102 1.257V31h-1.406v-8.367zm13.359.039h1.43V31h-1.43v-8.328zm0-3.149h1.43v1.594h-1.43v-1.594zm3.563 3.11h1.336v1.187c.396-.49.815-.84 1.258-1.054.442-.214.935-.32 1.476-.32 1.188 0 1.99.413 2.406 1.241.23.454.344 1.102.344 1.946V31h-1.429v-5.273c0-.51-.076-.922-.227-1.235-.25-.52-.703-.781-1.359-.781-.334 0-.607.034-.821.102-.385.114-.724.343-1.015.687-.235.276-.388.563-.461.86-.068.291-.102.71-.102 1.257V31h-1.406v-8.367zm9.187-2.336h1.422v2.336h1.336v1.148h-1.336v5.461c0 .292.099.487.297.586.11.057.292.086.547.086h.219c.078-.005.169-.013.273-.023V31c-.161.047-.331.08-.508.102-.171.02-.359.03-.562.03-.656 0-1.102-.166-1.336-.5-.234-.338-.352-.775-.352-1.312v-5.539h-1.132v-1.148h1.132v-2.336zm7.657 2.148c.593 0 1.169.14 1.726.422.557.276.982.636 1.274 1.078.281.422.468.914.562 1.477.083.385.125 1 .125 1.844h-6.133c.026.849.227 1.53.602 2.047.375.51.956.765 1.742.765.734 0 1.32-.242 1.758-.726.25-.282.427-.607.531-.977h1.383c-.037.307-.159.651-.367 1.031-.203.375-.433.683-.688.922-.427.417-.955.698-1.586.844-.338.083-.721.125-1.148.125-1.042 0-1.925-.378-2.649-1.133-.724-.76-1.085-1.823-1.085-3.187 0-1.344.364-2.435 1.093-3.274.729-.838 1.683-1.258 2.86-1.258zm2.242 3.703c-.057-.609-.19-1.096-.399-1.46-.385-.678-1.028-1.016-1.929-1.016-.646 0-1.188.234-1.625.703-.438.463-.67 1.055-.696 1.773h4.649zm6.133-3.664c.656 0 1.229.162 1.718.485.266.182.537.448.813.797V22.71h1.297v7.61c0 1.062-.156 1.9-.469 2.515-.583 1.135-1.685 1.703-3.305 1.703-.901 0-1.659-.203-2.273-.61-.615-.4-.958-1.03-1.031-1.89h1.429c.068.375.203.664.407.867.317.313.817.469 1.5.469 1.078 0 1.783-.38 2.117-1.14.198-.448.289-1.248.273-2.4-.281.428-.62.746-1.015.954-.396.208-.92.313-1.571.313-.906 0-1.7-.32-2.383-.961-.677-.646-1.015-1.711-1.015-3.196 0-1.4.341-2.494 1.023-3.28.688-.787 1.516-1.18 2.485-1.18zm2.531 4.297c0-1.036-.214-1.804-.641-2.304-.427-.5-.971-.75-1.633-.75-.989 0-1.666.463-2.031 1.39-.193.495-.289 1.143-.289 1.945 0 .943.19 1.662.57 2.157.386.49.901.734 1.547.734 1.011 0 1.722-.456 2.133-1.367.229-.516.344-1.117.344-1.805zm3.461-4.148h1.336v1.445c.109-.281.377-.622.804-1.023.428-.407.92-.61 1.477-.61.026 0 .07.003.133.008.062.005.169.016.32.031v1.485c-.083-.016-.161-.026-.234-.032-.068-.005-.143-.007-.227-.007-.708 0-1.252.229-1.633.687-.38.453-.57.977-.57 1.57V31h-1.406v-8.367zm6.367 6.14c0 .407.148.727.445.961.297.235.649.352 1.055.352.495 0 .974-.115 1.438-.344.781-.38 1.171-1.002 1.171-1.867v-1.133c-.171.11-.393.2-.664.274-.271.073-.536.125-.797.156l-.851.11c-.511.067-.893.174-1.149.32-.432.244-.648.635-.648 1.171zm3.406-2.843c.323-.042.539-.177.649-.407.062-.125.093-.304.093-.539 0-.479-.171-.825-.515-1.039-.339-.218-.826-.328-1.461-.328-.734 0-1.255.198-1.563.594-.171.219-.283.544-.336.977h-1.312c.026-1.032.359-1.748 1-2.149.646-.406 1.393-.61 2.242-.61.985 0 1.784.188 2.399.563.609.375.914.959.914 1.75v4.82c0 .146.028.264.086.352.062.089.19.133.382.133.063 0 .133-.003.211-.008.078-.01.162-.023.25-.039v1.04c-.218.062-.385.1-.5.116-.114.016-.271.024-.468.024-.485 0-.836-.172-1.055-.516-.115-.182-.195-.44-.242-.773-.287.375-.698.7-1.235.976-.536.276-1.127.414-1.773.414-.776 0-1.412-.234-1.906-.703-.49-.474-.735-1.065-.735-1.773 0-.776.242-1.378.727-1.805.484-.427 1.12-.69 1.906-.79l2.242-.28zm4.703-5.633h1.422v2.336h1.336v1.148h-1.336v5.461c0 .292.099.487.297.586.11.057.292.086.547.086h.219c.078-.005.169-.013.273-.023V31c-.161.047-.331.08-.508.102-.171.02-.359.03-.562.03-.656 0-1.102-.166-1.336-.5-.234-.338-.352-.775-.352-1.312v-5.539h-1.132v-1.148h1.132v-2.336zm4.172 2.375h1.43V31h-1.43v-8.328zm0-3.149h1.43v1.594h-1.43v-1.594zm6.883 10.57c.932 0 1.57-.35 1.914-1.054.349-.708.524-1.495.524-2.36 0-.78-.125-1.416-.375-1.906-.396-.77-1.079-1.156-2.047-1.156-.86 0-1.485.328-1.875.985-.391.656-.586 1.447-.586 2.375 0 .89.195 1.632.586 2.226.39.594 1.01.89 1.859.89zm.055-7.702c1.078 0 1.989.359 2.734 1.078.745.718 1.117 1.776 1.117 3.172 0 1.349-.328 2.463-.984 3.343-.656.88-1.675 1.32-3.055 1.32-1.151 0-2.065-.387-2.742-1.163-.677-.782-1.016-1.828-1.016-3.141 0-1.406.357-2.526 1.071-3.36.713-.833 1.672-1.25 2.875-1.25zm5.531.242h1.336v1.187c.396-.49.815-.84 1.258-1.054.442-.214.935-.32 1.476-.32 1.188 0 1.99.413 2.407 1.241.229.454.343 1.102.343 1.946V31h-1.429v-5.273c0-.51-.076-.922-.227-1.235-.25-.52-.703-.781-1.359-.781-.334 0-.607.034-.821.102-.385.114-.724.343-1.015.687-.235.276-.388.563-.461.86-.068.291-.102.71-.102 1.257V31h-1.406v-8.367zm13.711-1.274c.021-.583.122-1.01.305-1.28.328-.48.961-.72 1.898-.72.089 0 .18.003.274.008.093.005.2.013.32.024v1.28c-.146-.01-.253-.015-.32-.015-.063-.005-.123-.008-.18-.008-.427 0-.682.112-.766.336-.083.22-.125.782-.125 1.688h1.391v1.11h-1.406V31h-1.391v-7.219h-1.164v-1.11h1.164V21.36zm7.422 8.735c.932 0 1.57-.352 1.914-1.055.349-.708.523-1.495.523-2.36 0-.78-.125-1.416-.375-1.906-.396-.77-1.078-1.156-2.047-1.156-.859 0-1.484.328-1.875.985-.39.656-.585 1.447-.585 2.375 0 .89.195 1.632.585 2.226.391.594 1.011.89 1.86.89zm.055-7.703c1.078 0 1.989.359 2.734 1.078.745.718 1.117 1.776 1.117 3.172 0 1.349-.328 2.463-.984 3.343-.657.88-1.675 1.32-3.055 1.32-1.151 0-2.065-.387-2.742-1.163-.677-.782-1.016-1.828-1.016-3.141 0-1.406.357-2.526 1.071-3.36.713-.833 1.671-1.25 2.875-1.25zm5.57.242h1.336v1.445c.109-.281.377-.622.804-1.023.428-.407.92-.61 1.477-.61.026 0 .07.003.133.008.062.005.169.016.32.031v1.485c-.083-.016-.161-.026-.234-.032-.068-.005-.143-.007-.227-.007-.708 0-1.252.229-1.633.687-.38.453-.57.977-.57 1.57V31h-1.406v-8.367zm14.945 3.664l-1.742-5.07-1.852 5.07h3.594zm-2.555-6.774h1.758L345.111 31h-1.703l-1.164-3.438h-4.539L336.463 31h-1.594l4.32-11.477zm7.5 0l2.165 9.336 2.593-9.336h1.688l2.594 9.336 2.164-9.336h1.703L356.58 31h-1.633l-2.648-9.516L349.635 31h-1.633l-3-11.477h1.687zm15.368 7.774c.036.65.19 1.18.461 1.586.515.76 1.424 1.14 2.726 1.14.583 0 1.115-.083 1.594-.25.927-.322 1.391-.9 1.391-1.734 0-.625-.196-1.07-.586-1.336-.396-.26-1.016-.487-1.86-.68l-1.554-.351c-1.016-.23-1.735-.482-2.157-.758-.729-.48-1.093-1.195-1.093-2.148 0-1.032.356-1.878 1.07-2.54.713-.66 1.724-.992 3.031-.992 1.203 0 2.224.292 3.063.875.843.578 1.265 1.506 1.265 2.782h-1.461c-.078-.615-.245-1.086-.5-1.414-.474-.6-1.278-.899-2.414-.899-.916 0-1.575.193-1.976.578-.401.386-.602.834-.602 1.344 0 .563.234.974.703 1.234.307.167 1.003.375 2.086.625l1.61.368c.776.177 1.375.419 1.796.726.73.537 1.094 1.315 1.094 2.336 0 1.27-.463 2.18-1.39 2.727-.922.547-1.995.82-3.219.82-1.427 0-2.545-.365-3.352-1.094-.807-.724-1.203-1.706-1.187-2.945h1.461zm12.078-7.774h1.187L371.682 31h-1.188l3.641-11.477zm2.383 0h1.57V31h-1.57V19.523zm9.992 6.774l-1.742-5.07-1.852 5.07h3.594zm-2.555-6.774h1.758L389.877 31h-1.703l-1.164-3.438h-4.539L381.229 31h-1.594l4.32-11.477zm7.297 0h2.227l3.296 9.704 3.274-9.704h2.203V31h-1.477v-6.773c0-.235.006-.623.016-1.165.01-.541.016-1.122.016-1.742L397.533 31h-1.539l-3.297-9.68v.352c0 .281.005.71.016 1.289.016.573.023.995.023 1.266V31h-1.484V19.523zm17.914.774h1.422v2.336h1.336v1.148h-1.336v5.461c0 .292.099.487.297.586.109.057.291.086.547.086h.218c.079-.005.17-.013.274-.023V31c-.162.047-.331.08-.508.102-.172.02-.359.03-.562.03-.657 0-1.102-.166-1.336-.5-.235-.338-.352-.775-.352-1.312v-5.539h-1.133v-1.148h1.133v-2.336zm7.492 9.797c.932 0 1.571-.352 1.914-1.055.349-.708.524-1.495.524-2.36 0-.78-.125-1.416-.375-1.906-.396-.77-1.078-1.156-2.047-1.156-.86 0-1.485.328-1.875.985-.391.656-.586 1.447-.586 2.375 0 .89.195 1.632.586 2.226.39.594 1.01.89 1.859.89zm.055-7.703c1.078 0 1.989.359 2.734 1.078.745.718 1.117 1.776 1.117 3.172 0 1.349-.328 2.463-.984 3.343-.656.88-1.674 1.32-3.055 1.32-1.151 0-2.065-.387-2.742-1.163-.677-.782-1.015-1.828-1.015-3.141 0-1.406.356-2.526 1.07-3.36.713-.833 1.672-1.25 2.875-1.25zm11.062 6.382c0 .407.149.727.446.961.297.235.648.352 1.054.352.495 0 .974-.115 1.438-.344.781-.38 1.172-1.002 1.172-1.867v-1.133c-.172.11-.393.2-.664.274-.271.073-.537.125-.797.156l-.852.11c-.51.067-.893.174-1.148.32-.432.244-.649.635-.649 1.171zm3.407-2.843c.323-.042.539-.177.648-.407.063-.125.094-.304.094-.539 0-.479-.172-.825-.516-1.039-.338-.218-.825-.328-1.461-.328-.734 0-1.255.198-1.562.594-.172.219-.284.544-.336.977h-1.313c.026-1.032.36-1.748 1-2.149.646-.406 1.394-.61 2.243-.61.984 0 1.783.188 2.398.563.609.375.914.959.914 1.75v4.82c0 .146.029.264.086.352.062.089.19.133.383.133.062 0 .133-.003.211-.008.078-.01.161-.023.25-.039v1.04c-.219.062-.386.1-.5.116-.115.016-.271.024-.469.024-.484 0-.836-.172-1.055-.516-.114-.182-.195-.44-.242-.773-.286.375-.698.7-1.234.976-.537.276-1.128.414-1.774.414-.776 0-1.411-.234-1.906-.703-.49-.474-.734-1.065-.734-1.773 0-.776.242-1.378.726-1.805.485-.427 1.12-.69 1.906-.79l2.243-.28zm4.461-6.407h1.406V31h-1.406V19.523zm3.562 0h1.406V31h-1.406V19.523zm6.844 10.57c.932 0 1.57-.35 1.914-1.054.349-.708.523-1.495.523-2.36 0-.78-.125-1.416-.375-1.906-.396-.77-1.078-1.156-2.047-1.156-.859 0-1.484.328-1.875.985-.39.656-.585 1.447-.585 2.375 0 .89.195 1.632.585 2.226.391.594 1.011.89 1.86.89zm.055-7.702c1.078 0 1.989.359 2.734 1.078.745.718 1.117 1.776 1.117 3.172 0 1.349-.328 2.463-.984 3.343-.657.88-1.675 1.32-3.055 1.32-1.151 0-2.065-.387-2.742-1.163-.677-.782-1.016-1.828-1.016-3.141 0-1.406.357-2.526 1.071-3.36.713-.833 1.671-1.25 2.875-1.25zm6.179.242l1.61 6.594 1.632-6.594h1.579l1.64 6.555 1.711-6.555h1.406L459.432 31h-1.461l-1.703-6.477L454.619 31h-1.461l-2.414-8.367h1.539zm23.625-3.11v1.368h-3.867V31h-1.578V20.89h-3.867v-1.367h9.312zm0 6.297h3.922v1.446h-3.922V25.82zm6.789-6.297l3.297 9.774 3.258-9.774h1.742L486.807 31h-1.649l-4.179-11.477h1.718zm9.469 9.25c0 .407.148.727.445.961.297.235.649.352 1.055.352.495 0 .974-.115 1.438-.344.781-.38 1.171-1.002 1.171-1.867v-1.133c-.171.11-.393.2-.664.274-.271.073-.536.125-.797.156l-.851.11c-.511.067-.893.174-1.149.32-.432.244-.648.635-.648 1.171zm3.406-2.843c.323-.042.539-.177.649-.407.062-.125.093-.304.093-.539 0-.479-.171-.825-.515-1.039-.339-.218-.826-.328-1.461-.328-.734 0-1.255.198-1.563.594-.171.219-.283.544-.336.977h-1.312c.026-1.032.359-1.748 1-2.149.646-.406 1.393-.61 2.242-.61.985 0 1.784.188 2.399.563.609.375.914.959.914 1.75v4.82c0 .146.028.264.086.352.062.089.19.133.382.133.063 0 .133-.003.211-.008.078-.01.162-.023.25-.039v1.04c-.218.062-.385.1-.5.116-.114.016-.271.024-.468.024-.485 0-.836-.172-1.055-.516-.115-.182-.195-.44-.242-.773-.287.375-.698.7-1.235.976-.536.276-1.127.414-1.773.414-.776 0-1.412-.234-1.906-.703-.49-.474-.735-1.065-.735-1.773 0-.776.242-1.378.727-1.805.484-.427 1.12-.69 1.906-.79l2.242-.28zm5.828-3.297v5.555c0 .427.068.776.204 1.046.25.5.716.75 1.398.75.979 0 1.646-.437 2-1.312.193-.469.289-1.112.289-1.93v-4.11h1.406V31h-1.328l.016-1.234c-.183.317-.409.586-.68.804-.536.438-1.187.657-1.953.657-1.193 0-2.005-.399-2.438-1.196-.234-.427-.351-.997-.351-1.71v-5.688h1.437zm7.539-3.11h1.407V31h-1.407V19.523zm3.805.774h1.422v2.336h1.336v1.148h-1.336v5.461c0 .292.099.487.297.586.109.057.292.086.547.086h.219c.078-.005.169-.013.273-.023V31c-.162.047-.331.08-.508.102-.172.02-.359.03-.562.03-.657 0-1.102-.166-1.336-.5-.235-.338-.352-.775-.352-1.312v-5.539h-1.133v-1.148h1.133v-2.336zm8.906 0h1.422v2.336h1.336v1.148h-1.336v5.461c0 .292.099.487.297.586.11.057.292.086.547.086h.219c.078-.005.169-.013.273-.023V31c-.161.047-.331.08-.508.102-.171.02-.359.03-.562.03-.656 0-1.102-.166-1.336-.5-.234-.338-.352-.775-.352-1.312v-5.539h-1.132v-1.148h1.132v-2.336zm7.493 9.797c.932 0 1.57-.352 1.914-1.055.349-.708.523-1.495.523-2.36 0-.78-.125-1.416-.375-1.906-.396-.77-1.078-1.156-2.047-1.156-.859 0-1.484.328-1.875.985-.39.656-.586 1.447-.586 2.375 0 .89.196 1.632.586 2.226.391.594 1.011.89 1.86.89zm.054-7.703c1.078 0 1.99.359 2.735 1.078.744.718 1.117 1.776 1.117 3.172 0 1.349-.328 2.463-.985 3.343-.656.88-1.674 1.32-3.054 1.32-1.151 0-2.065-.387-2.742-1.163-.678-.782-1.016-1.828-1.016-3.141 0-1.406.357-2.526 1.07-3.36.714-.833 1.672-1.25 2.875-1.25zm9.985.242h1.39v1.187c.334-.411.636-.71.907-.898.463-.318.989-.477 1.578-.477.666 0 1.203.164 1.609.492.229.188.438.464.625.829.313-.448.68-.779 1.102-.993.421-.218.895-.328 1.421-.328 1.125 0 1.891.407 2.297 1.22.219.437.328 1.025.328 1.765V31h-1.46v-5.813c0-.557-.141-.94-.422-1.148-.276-.208-.615-.312-1.016-.312-.552 0-1.029.184-1.43.554-.396.37-.593.987-.593 1.852V31h-1.43v-5.46c0-.569-.068-.983-.203-1.243-.214-.39-.612-.586-1.196-.586-.531 0-1.015.206-1.453.617-.432.412-.648 1.156-.648 2.235V31h-1.406v-8.367zm14.406 6.14c0 .407.148.727.445.961.297.235.649.352 1.055.352.495 0 .974-.115 1.437-.344.782-.38 1.172-1.002 1.172-1.867v-1.133c-.172.11-.393.2-.664.274-.271.073-.536.125-.797.156l-.851.11c-.511.067-.893.174-1.149.32-.432.244-.648.635-.648 1.171zm3.406-2.843c.323-.042.539-.177.649-.407.062-.125.093-.304.093-.539 0-.479-.172-.825-.515-1.039-.339-.218-.826-.328-1.461-.328-.735 0-1.255.198-1.563.594-.172.219-.284.544-.336.977h-1.312c.026-1.032.359-1.748 1-2.149.646-.406 1.393-.61 2.242-.61.984 0 1.784.188 2.398.563.61.375.915.959.915 1.75v4.82c0 .146.028.264.085.352.063.089.191.133.383.133.063 0 .133-.003.211-.008.078-.01.162-.023.25-.039v1.04c-.219.062-.385.1-.5.116-.114.016-.271.024-.469.024-.484 0-.835-.172-1.054-.516-.115-.182-.196-.44-.242-.773-.287.375-.698.7-1.235.976-.536.276-1.127.414-1.773.414-.776 0-1.412-.234-1.906-.703-.49-.474-.735-1.065-.735-1.773 0-.776.242-1.378.727-1.805.484-.427 1.119-.69 1.906-.79l2.242-.28zm4.422-3.297h1.336v1.187c.396-.49.815-.84 1.258-1.054.442-.214.935-.32 1.476-.32 1.188 0 1.99.413 2.407 1.241.229.454.343 1.102.343 1.946V31h-1.429v-5.273c0-.51-.076-.922-.227-1.235-.25-.52-.703-.781-1.359-.781-.334 0-.607.034-.821.102-.385.114-.724.343-1.015.687-.235.276-.388.563-.461.86-.068.291-.102.71-.102 1.257V31h-1.406v-8.367zm9.984 6.14c0 .407.149.727.446.961.297.235.648.352 1.054.352.495 0 .974-.115 1.438-.344.781-.38 1.172-1.002 1.172-1.867v-1.133c-.172.11-.393.2-.664.274-.271.073-.537.125-.797.156l-.852.11c-.51.067-.893.174-1.148.32-.432.244-.649.635-.649 1.171zm3.407-2.843c.323-.042.539-.177.648-.407.063-.125.094-.304.094-.539 0-.479-.172-.825-.516-1.039-.338-.218-.825-.328-1.461-.328-.734 0-1.255.198-1.562.594-.172.219-.284.544-.336.977h-1.313c.026-1.032.36-1.748 1-2.149.646-.406 1.394-.61 2.243-.61.984 0 1.783.188 2.398.563.609.375.914.959.914 1.75v4.82c0 .146.029.264.086.352.062.089.19.133.383.133.062 0 .133-.003.211-.008.078-.01.161-.023.25-.039v1.04c-.219.062-.386.1-.5.116-.115.016-.271.024-.469.024-.484 0-.836-.172-1.055-.516-.114-.182-.195-.44-.242-.773-.286.375-.698.7-1.234.976-.537.276-1.128.414-1.774.414-.776 0-1.411-.234-1.906-.703-.49-.474-.734-1.065-.734-1.773 0-.776.242-1.378.726-1.805.485-.427 1.12-.69 1.906-.79l2.243-.28zm7.375-3.446c.656 0 1.229.162 1.718.485.266.182.537.448.813.797V22.71h1.297v7.61c0 1.062-.156 1.9-.469 2.515-.583 1.135-1.685 1.703-3.305 1.703-.901 0-1.659-.203-2.273-.61-.615-.4-.958-1.03-1.031-1.89h1.429c.068.375.203.664.407.867.317.313.817.469 1.5.469 1.078 0 1.783-.38 2.117-1.14.198-.448.289-1.248.273-2.4-.281.428-.62.746-1.015.954-.396.208-.92.313-1.571.313-.906 0-1.7-.32-2.383-.961-.677-.646-1.015-1.711-1.015-3.196 0-1.4.341-2.494 1.023-3.28.688-.787 1.516-1.18 2.485-1.18zm2.531 4.297c0-1.036-.214-1.804-.641-2.304-.427-.5-.971-.75-1.633-.75-.989 0-1.666.463-2.031 1.39-.193.495-.289 1.143-.289 1.945 0 .943.19 1.662.57 2.157.386.49.901.734 1.547.734 1.011 0 1.722-.456 2.133-1.367.229-.516.344-1.117.344-1.805zm6.906-4.336c.594 0 1.169.14 1.727.422.557.276.981.636 1.273 1.078.281.422.469.914.563 1.477.083.385.125 1 .125 1.844h-6.133c.026.849.226 1.53.601 2.047.375.51.956.765 1.743.765.734 0 1.32-.242 1.757-.726.25-.282.427-.607.532-.977h1.382c-.036.307-.158.651-.367 1.031-.203.375-.432.683-.687.922-.427.417-.956.698-1.586.844-.339.083-.722.125-1.149.125-1.041 0-1.924-.378-2.648-1.133-.724-.76-1.086-1.823-1.086-3.187 0-1.344.365-2.435 1.094-3.274.729-.838 1.682-1.258 2.859-1.258zm2.242 3.703c-.057-.609-.19-1.096-.398-1.46-.386-.678-1.029-1.016-1.93-1.016-.646 0-1.187.234-1.625.703-.437.463-.669 1.055-.695 1.773h4.648zm7.914-5.851h1.422v2.336h1.336v1.148h-1.336v5.461c0 .292.099.487.297.586.11.057.292.086.547.086h.219c.078-.005.169-.013.273-.023V31c-.161.047-.331.08-.508.102-.171.02-.359.03-.562.03-.656 0-1.102-.166-1.336-.5-.234-.338-.352-.775-.352-1.312v-5.539h-1.132v-1.148h1.132v-2.336zm4.172-.813h1.407v4.282c.333-.422.632-.72.898-.891.453-.297 1.018-.445 1.695-.445 1.214 0 2.037.424 2.469 1.273.234.464.352 1.107.352 1.93V31h-1.446v-5.273c0-.615-.078-1.066-.234-1.352-.255-.458-.734-.688-1.438-.688-.583 0-1.112.201-1.586.602-.474.401-.71 1.159-.71 2.273V31h-1.407V19.484zm12.391 2.961c.594 0 1.169.14 1.726.422.558.276.982.636 1.274 1.078.281.422.469.914.562 1.477.084.385.125 1 .125 1.844h-6.132c.026.849.226 1.53.601 2.047.375.51.956.765 1.742.765.735 0 1.321-.242 1.758-.726.25-.282.427-.607.531-.977h1.383c-.036.307-.159.651-.367 1.031-.203.375-.432.683-.687.922-.428.417-.956.698-1.586.844-.339.083-.722.125-1.149.125-1.042 0-1.924-.378-2.648-1.133-.724-.76-1.086-1.823-1.086-3.187 0-1.344.364-2.435 1.094-3.274.729-.838 1.682-1.258 2.859-1.258zm2.242 3.703c-.057-.609-.19-1.096-.398-1.46-.386-.678-1.029-1.016-1.93-1.016-.646 0-1.188.234-1.625.703-.438.463-.669 1.055-.695 1.773h4.648zm8.711 2.625c0 .407.148.727.445.961.297.235.649.352 1.055.352.495 0 .974-.115 1.438-.344.781-.38 1.171-1.002 1.171-1.867v-1.133c-.171.11-.393.2-.664.274-.271.073-.536.125-.797.156l-.851.11c-.511.067-.893.174-1.149.32-.432.244-.648.635-.648 1.171zm3.406-2.843c.323-.042.539-.177.649-.407.062-.125.093-.304.093-.539 0-.479-.171-.825-.515-1.039-.339-.218-.826-.328-1.461-.328-.734 0-1.255.198-1.563.594-.171.219-.283.544-.336.977h-1.312c.026-1.032.359-1.748 1-2.149.646-.406 1.393-.61 2.242-.61.985 0 1.784.188 2.399.563.609.375.914.959.914 1.75v4.82c0 .146.028.264.086.352.062.089.19.133.382.133.063 0 .133-.003.211-.008.078-.01.162-.023.25-.039v1.04c-.218.062-.385.1-.5.116-.114.016-.271.024-.468.024-.485 0-.836-.172-1.055-.516-.115-.182-.195-.44-.242-.773-.287.375-.698.7-1.235.976-.536.276-1.127.414-1.773.414-.776 0-1.412-.234-1.906-.703-.49-.474-.735-1.065-.735-1.773 0-.776.242-1.378.727-1.805.484-.427 1.12-.69 1.906-.79l2.242-.28zm5.258 2.445c.042.469.159.828.352 1.078.354.453.968.68 1.843.68.521 0 .98-.112 1.375-.336.396-.23.594-.58.594-1.055 0-.36-.159-.633-.476-.82-.204-.115-.605-.248-1.204-.399l-1.117-.28c-.713-.178-1.239-.376-1.578-.595-.604-.38-.906-.906-.906-1.578 0-.791.284-1.432.851-1.922.573-.49 1.342-.734 2.305-.734 1.261 0 2.169.37 2.727 1.11.349.468.518.973.508 1.515H641.9c-.026-.318-.138-.607-.336-.867-.322-.37-.882-.555-1.679-.555-.531 0-.935.102-1.211.305-.271.203-.406.471-.406.805 0 .364.179.656.539.875.208.13.515.244.922.343l.929.227c1.011.245 1.688.482 2.031.71.547.36.821.925.821 1.696 0 .745-.284 1.388-.852 1.93-.562.541-1.422.812-2.578.812-1.245 0-2.128-.28-2.648-.843-.516-.568-.792-1.269-.828-2.102h1.351zm8 0c.042.469.159.828.352 1.078.354.453.968.68 1.843.68.521 0 .98-.112 1.375-.336.396-.23.594-.58.594-1.055 0-.36-.159-.633-.476-.82-.204-.115-.605-.248-1.204-.399l-1.117-.28c-.713-.178-1.239-.376-1.578-.595-.604-.38-.906-.906-.906-1.578 0-.791.284-1.432.851-1.922.573-.49 1.342-.734 2.305-.734 1.261 0 2.169.37 2.727 1.11.349.468.518.973.508 1.515H649.9c-.026-.318-.138-.607-.336-.867-.322-.37-.882-.555-1.679-.555-.531 0-.935.102-1.211.305-.271.203-.406.471-.406.805 0 .364.179.656.539.875.208.13.515.244.922.343l.929.227c1.011.245 1.688.482 2.031.71.547.36.821.925.821 1.696 0 .745-.284 1.388-.852 1.93-.562.541-1.422.812-2.578.812-1.245 0-2.128-.28-2.648-.843-.516-.568-.792-1.269-.828-2.102h1.351zm10.484 1.719c.933 0 1.571-.352 1.915-1.055.348-.708.523-1.495.523-2.36 0-.78-.125-1.416-.375-1.906-.396-.77-1.078-1.156-2.047-1.156-.859 0-1.484.328-1.875.985-.391.656-.586 1.447-.586 2.375 0 .89.195 1.632.586 2.226.391.594 1.01.89 1.859.89zm.055-7.703c1.078 0 1.99.359 2.735 1.078.744.718 1.117 1.776 1.117 3.172 0 1.349-.328 2.463-.985 3.343-.656.88-1.674 1.32-3.054 1.32-1.151 0-2.065-.387-2.743-1.163-.677-.782-1.015-1.828-1.015-3.141 0-1.406.357-2.526 1.07-3.36.714-.833 1.672-1.25 2.875-1.25zm8.758 0c.943 0 1.708.229 2.297.687.594.459.95 1.248 1.07 2.367h-1.367c-.083-.515-.273-.942-.57-1.28-.297-.345-.774-.517-1.43-.517-.896 0-1.537.438-1.922 1.313-.25.568-.375 1.268-.375 2.102 0 .838.177 1.544.531 2.117.354.573.912.86 1.672.86.584 0 1.044-.178 1.383-.532.344-.36.581-.85.711-1.469h1.367c-.156 1.11-.547 1.922-1.172 2.438-.625.51-1.424.765-2.398.765-1.094 0-1.966-.398-2.617-1.195-.651-.802-.977-1.802-.977-3 0-1.469.357-2.612 1.07-3.43.714-.818 1.623-1.226 2.727-1.226zm4.773.28h1.43V31h-1.43v-8.328zm0-3.148h1.43v1.594h-1.43v-1.594zm4.641 9.25c0 .407.148.727.445.961.297.235.649.352 1.055.352.495 0 .974-.115 1.438-.344.781-.38 1.171-1.002 1.171-1.867v-1.133c-.171.11-.393.2-.664.274-.271.073-.536.125-.797.156l-.851.11c-.511.067-.893.174-1.149.32-.432.244-.648.635-.648 1.171zm3.406-2.843c.323-.042.539-.177.649-.407.062-.125.093-.304.093-.539 0-.479-.171-.825-.515-1.039-.339-.218-.826-.328-1.461-.328-.734 0-1.255.198-1.563.594-.171.219-.283.544-.336.977h-1.312c.026-1.032.359-1.748 1-2.149.646-.406 1.393-.61 2.242-.61.985 0 1.784.188 2.399.563.609.375.914.959.914 1.75v4.82c0 .146.028.264.086.352.062.089.19.133.382.133.063 0 .133-.003.211-.008.078-.01.162-.023.25-.039v1.04c-.218.062-.385.1-.5.116-.114.016-.271.024-.468.024-.485 0-.836-.172-1.055-.516-.115-.182-.195-.44-.242-.773-.287.375-.698.7-1.235.976-.536.276-1.127.414-1.773.414-.776 0-1.412-.234-1.906-.703-.49-.474-.735-1.065-.735-1.773 0-.776.242-1.378.727-1.805.484-.427 1.12-.69 1.906-.79l2.242-.28zm4.703-5.633h1.422v2.336h1.336v1.148h-1.336v5.461c0 .292.099.487.297.586.11.057.292.086.547.086h.219c.078-.005.169-.013.273-.023V31c-.161.047-.331.08-.508.102-.171.02-.359.03-.562.03-.656 0-1.102-.166-1.336-.5-.234-.338-.352-.775-.352-1.312v-5.539h-1.132v-1.148h1.132v-2.336zm7.657 2.148c.593 0 1.169.14 1.726.422.557.276.982.636 1.274 1.078.281.422.468.914.562 1.477.083.385.125 1 .125 1.844h-6.133c.026.849.227 1.53.602 2.047.375.51.956.765 1.742.765.734 0 1.32-.242 1.758-.726.25-.282.427-.607.531-.977h1.383c-.037.307-.159.651-.367 1.031-.203.375-.433.683-.688.922-.427.417-.955.698-1.586.844-.338.083-.721.125-1.148.125-1.042 0-1.925-.378-2.649-1.133-.724-.76-1.085-1.823-1.085-3.187 0-1.344.364-2.435 1.093-3.274.729-.838 1.683-1.258 2.86-1.258zm2.242 3.703c-.057-.609-.19-1.096-.399-1.46-.385-.678-1.028-1.016-1.929-1.016-.646 0-1.188.234-1.625.703-.438.463-.67 1.055-.696 1.773h4.649zm4.07.766c0 .896.19 1.646.57 2.25.381.604.99.906 1.829.906.651 0 1.184-.278 1.601-.836.422-.562.633-1.367.633-2.414 0-1.057-.216-1.838-.648-2.343-.433-.51-.967-.766-1.602-.766-.708 0-1.284.27-1.727.812-.437.542-.656 1.339-.656 2.391zm2.117-4.43c.641 0 1.177.136 1.61.407.25.156.534.43.851.82v-4.227h1.352V31h-1.266v-1.164c-.328.516-.716.888-1.164 1.117-.448.23-.961.344-1.539.344-.932 0-1.74-.39-2.422-1.172-.682-.787-1.023-1.83-1.023-3.133 0-1.219.31-2.273.929-3.164.625-.896 1.516-1.344 2.672-1.344zm11.188 5.891c.041.469.159.828.351 1.078.355.453.969.68 1.844.68.521 0 .979-.112 1.375-.336.396-.23.594-.58.594-1.055 0-.36-.159-.633-.477-.82-.203-.115-.604-.248-1.203-.399l-1.117-.28c-.714-.178-1.24-.376-1.578-.595-.604-.38-.906-.906-.906-1.578 0-.791.283-1.432.851-1.922.573-.49 1.341-.734 2.305-.734 1.26 0 2.169.37 2.726 1.11.349.468.519.973.508 1.515h-1.328c-.026-.318-.138-.607-.336-.867-.323-.37-.883-.555-1.679-.555-.532 0-.935.102-1.211.305-.271.203-.407.471-.407.805 0 .364.18.656.539.875.209.13.516.244.922.343l.93.227c1.01.245 1.687.482 2.031.71.547.36.821.925.821 1.696 0 .745-.284 1.388-.852 1.93-.563.541-1.422.812-2.578.812-1.245 0-2.128-.28-2.649-.843-.515-.568-.791-1.269-.828-2.102h1.352zm10.648-5.93c.594 0 1.17.14 1.727.422.557.276.982.636 1.273 1.078.282.422.469.914.563 1.477.083.385.125 1 .125 1.844h-6.133c.026.849.227 1.53.602 2.047.375.51.955.765 1.742.765.734 0 1.32-.242 1.758-.726.25-.282.427-.607.531-.977h1.383c-.037.307-.159.651-.368 1.031-.203.375-.432.683-.687.922-.427.417-.956.698-1.586.844-.339.083-.721.125-1.148.125-1.042 0-1.925-.378-2.649-1.133-.724-.76-1.086-1.823-1.086-3.187 0-1.344.365-2.435 1.094-3.274.729-.838 1.682-1.258 2.859-1.258zm2.242 3.703c-.057-.609-.19-1.096-.398-1.46-.385-.678-1.029-1.016-1.93-1.016-.646 0-1.187.234-1.625.703-.437.463-.669 1.055-.695 1.773h4.648zm6.407-3.757c.942 0 1.708.229 2.297.687.593.459.95 1.248 1.07 2.367h-1.367c-.084-.515-.274-.942-.571-1.28-.296-.345-.773-.517-1.429-.517-.896 0-1.537.438-1.922 1.313-.25.568-.375 1.268-.375 2.102 0 .838.177 1.544.531 2.117.354.573.912.86 1.672.86.583 0 1.044-.178 1.383-.532.344-.36.58-.85.711-1.469h1.367c-.156 1.11-.547 1.922-1.172 2.438-.625.51-1.424.765-2.398.765-1.094 0-1.967-.398-2.618-1.195-.651-.802-.976-1.802-.976-3 0-1.469.357-2.612 1.07-3.43.714-.818 1.623-1.226 2.727-1.226zm4.812.242h1.336v1.445c.11-.281.378-.622.805-1.023.427-.407.919-.61 1.476-.61.026 0 .071.003.133.008.063.005.169.016.321.031v1.485c-.084-.016-.162-.026-.235-.032-.068-.005-.143-.007-.226-.007-.709 0-1.253.229-1.633.687-.38.453-.571.977-.571 1.57V31h-1.406v-8.367zm8.774-.188c.593 0 1.169.14 1.726.422.557.276.982.636 1.274 1.078.281.422.468.914.562 1.477.083.385.125 1 .125 1.844h-6.133c.026.849.227 1.53.602 2.047.375.51.956.765 1.742.765.734 0 1.32-.242 1.758-.726.25-.282.427-.607.531-.977h1.383c-.037.307-.159.651-.367 1.031-.203.375-.433.683-.688.922-.427.417-.955.698-1.586.844-.338.083-.721.125-1.148.125-1.042 0-1.925-.378-2.649-1.133-.724-.76-1.085-1.823-1.085-3.187 0-1.344.364-2.435 1.093-3.274.729-.838 1.683-1.258 2.86-1.258zm2.242 3.703c-.057-.609-.19-1.096-.399-1.46-.385-.678-1.028-1.016-1.929-1.016-.646 0-1.188.234-1.625.703-.438.463-.67 1.055-.696 1.773h4.649zm3.461-5.851h1.422v2.336h1.336v1.148h-1.336v5.461c0 .292.099.487.297.586.109.057.291.086.546.086h.219c.078-.005.169-.013.274-.023V31c-.162.047-.331.08-.508.102-.172.02-.36.03-.563.03-.656 0-1.101-.166-1.336-.5-.234-.338-.351-.775-.351-1.312v-5.539h-1.133v-1.148h1.133v-2.336zm5.008 8.078c.041.469.158.828.351 1.078.354.453.969.68 1.844.68.521 0 .979-.112 1.375-.336.396-.23.594-.58.594-1.055 0-.36-.159-.633-.477-.82-.203-.115-.604-.248-1.203-.399l-1.117-.28c-.714-.178-1.24-.376-1.578-.595-.605-.38-.907-.906-.907-1.578 0-.791.284-1.432.852-1.922.573-.49 1.341-.734 2.305-.734 1.26 0 2.169.37 2.726 1.11.349.468.518.973.508 1.515h-1.328c-.026-.318-.138-.607-.336-.867-.323-.37-.883-.555-1.68-.555-.531 0-.935.102-1.211.305-.271.203-.406.471-.406.805 0 .364.18.656.539.875.208.13.516.244.922.343l.93.227c1.01.245 1.687.482 2.031.71.547.36.82.925.82 1.696 0 .745-.284 1.388-.851 1.93-.563.541-1.422.812-2.578.812-1.245 0-2.128-.28-2.649-.843-.515-.568-.792-1.269-.828-2.102h1.352z"/>
</svg>
