<svg xmlns="http://www.w3.org/2000/svg" width="102" height="125" fill="none" viewBox="0 0 102 125">
    <rect width="67.93" height="66.147" x="23.174" y="27.059" fill="#E20074" rx="33.073"/>
    <path fill="#fff" d="M47.08 68.012c.283-.11 1.325-.44 1.325-.44 1.174 1.527 2.398.622 2.83 1.594.52 1.167 1.656 3.71 2.046 4.571.389.862 1.261 1.662 1.902 1.43.635-.238 2.794-1.038 3.621-1.344.829-.305 1.023-1.02.772-1.589-.27-.61-1.388-.788-1.707-1.502-.32-.71-1.361-2.989-1.656-3.71-.407-.978.458-1.773 1.713-1.901 8.636-.861 10.248 4.333 13.192 3.166 2.279-.905 1.814-7.321-.98-13.658-1.524-3.441-3.545-6.442-5.44-8.317-1.594-1.577-3.094-2.36-4.136-1.944-3.865 1.528 2.303 8.88-16.68 16.397-1.64.648-2.06 3.245-1.369 4.796.213.477.57.954 1.01 1.363.991.934 2.415 1.54 3.558 1.088zm16.004-10.445c-2.172-4.925-1.903-9.423-1.393-9.624.503-.201 3.822 2.951 5.993 7.876 2.17 4.926 1.983 8.885 1.48 9.088-.508.202-3.91-2.413-6.08-7.34z"/>
    <path fill="#fff" d="M64.564 56.944c.672 1.558 1.651 2.64 2.197 2.414.54-.22.439-1.662-.232-3.22-.671-1.552-1.65-2.634-2.197-2.414-.545.226-.439 1.668.232 3.22z"/>
    <path fill="#E20074" fill-rule="evenodd" d="M52.647 5.515c-1.462.731-3.167.487-4.141-.974-.731-1.462-.487-3.167.974-4.142 1.462-.73 3.167-.487 4.142.975.73 1.461.487 3.41-.975 4.141zm39.617 3.38c.487.73 1.705.975 2.436.487.731-.487 1.218-1.461.487-2.436-.487-.73-1.705-.974-2.436-.487-.73.487-.974 1.705-.487 2.436zm-87.41 97.33c.73 1.218 2.435 1.705 3.653.974 1.218-.731 1.706-2.192.975-3.654-.731-1.218-2.436-1.706-3.654-.975s-1.705 2.437-.975 3.655zM.993 57.098c1.948 3.41 6.09 4.385 9.5 2.436 3.167-1.949 4.385-6.334 2.436-9.501-1.95-3.41-6.09-4.385-9.5-2.436-3.411 1.949-4.386 6.09-2.437 9.501zm73 66.545c-1.949 1.218-4.385.487-5.603-1.462-1.218-1.949-.487-4.385 1.462-5.604 1.949-1.218 4.385-.487 5.603 1.462 1.218 1.949.487 4.385-1.462 5.604zm3.173-17.307c1.218 1.706 3.41 2.193 5.115 1.218 1.95-1.218 2.436-3.41 1.218-5.116-1.218-1.705-3.41-2.192-5.115-1.218-1.705 1.218-2.193 3.411-1.218 5.116zM7.004 20.102c-.975.487-2.193.244-2.924-.731-.487-.975-.243-2.193.731-2.924.975-.487 2.193-.243 2.923.731.488.975.244 2.193-.73 2.924zm90.091 25.267c.488.974 1.95 1.462 2.924.73.974-.73 1.461-1.948.73-2.923-.487-.974-1.948-1.462-2.923-.73-.974.487-1.461 1.948-.73 2.923zm-59.64 65.605c-.488.244-1.219.244-1.706-.487-.244-.487-.244-1.218.487-1.706.487-.243 1.218-.243 1.705.488.244.731 0 1.461-.487 1.705zm-13.242-2.615c.488.487.975.487 1.462.243.487-.243.73-.731.244-1.461-.488-.488-.975-.488-1.462-.244-.487.487-.487.974-.244 1.462z" clip-rule="evenodd"/>
</svg>
