<svg xmlns="http://www.w3.org/2000/svg" width="220" height="220" fill="none" viewBox="0 0 220 220">
    <circle cx="110" cy="110" r="110" fill="#2C3040"/>
    <path fill="#1F232E" d="M160.397 51.922H59.603c-2.488 0-4.504 2.017-4.504 4.504V157.22c0 2.488 2.016 4.505 4.504 4.505h100.794c2.488 0 4.504-2.017 4.504-4.505V56.426c0-2.488-2.016-4.504-4.504-4.504zM65 163h22.857l-4.572 5.714H65V163zM156.426 163h-22.857l4.571 5.714h18.286V163z"/>
    <path fill="#1F232E" d="M153.417 61.125H65.979c-1.093 0-1.979.886-1.979 1.98v87.437c0 1.093.886 1.98 1.98 1.98h87.437c1.093 0 1.98-.887 1.98-1.98V63.104c0-1.093-.887-1.979-1.98-1.979z"/>
    <path fill="#2C3040" d="M155.692 63.105v2.842H71.115c-.525 0-1.028.208-1.4.579-.37.371-.579.874-.579 1.399v84.6h-2.853c-.26 0-.517-.051-.757-.15-.24-.1-.458-.245-.642-.429s-.33-.402-.429-.642c-.1-.24-.15-.497-.15-.757V63.105c0-.26.05-.517.15-.757.1-.24.245-.458.43-.642.183-.183.4-.329.641-.428.24-.1.497-.151.757-.151h87.431c.524 0 1.028.208 1.399.58.371.37.579.874.579 1.398z"/>
    <path fill="#454C5E" d="M153.719 153.443H66.281c-.769 0-1.506-.306-2.05-.85-.544-.544-.85-1.281-.851-2.05V63.104c0-.769.306-1.506.85-2.05.544-.544 1.282-.85 2.051-.85h87.438c.769 0 1.507.306 2.051.85.544.544.849 1.281.85 2.05v87.439c-.001.769-.307 1.506-.851 2.05-.544.544-1.281.85-2.05.85zM66.281 62.047c-.28 0-.55.112-.747.31-.199.198-.31.467-.31.747v87.439c0 .28.112.549.31.747.198.198.467.309.747.31h87.438c.28-.001.549-.112.747-.31.198-.198.31-.467.31-.747V63.104c0-.28-.111-.549-.31-.747-.198-.198-.467-.31-.747-.31H66.281z"/>
    <path fill="#454C5E" d="M155.903 71.831h-2.413c-1.475 0-2.671 1.196-2.671 2.67v13.96c0 1.475 1.196 2.67 2.671 2.67h2.413c1.475 0 2.671-1.195 2.671-2.67V74.5c0-1.474-1.196-2.67-2.671-2.67z"/>
    <path fill="#2C3040" d="M155.903 92.054h-2.412c-.472 0-.94-.093-1.376-.274-.436-.18-.833-.445-1.166-.779-.334-.334-.599-.73-.78-1.166-.18-.436-.273-.904-.273-1.376V74.502c0-.472.093-.94.273-1.375.181-.436.446-.833.78-1.167.333-.334.73-.598 1.166-.78.436-.18.904-.273 1.376-.273h2.412c.954 0 1.868.379 2.543 1.053.674.675 1.053 1.589 1.053 2.543V88.46c-.001.953-.38 1.867-1.054 2.54-.674.675-1.588 1.053-2.542 1.053zm-2.412-19.297c-.23 0-.458.045-.67.133-.213.088-.406.217-.569.38-.162.162-.291.355-.379.568-.088.212-.134.44-.134.67v13.953c0 .23.046.457.134.67.088.212.217.406.379.568.163.163.356.292.569.38.212.088.44.133.67.133h2.412c.465 0 .91-.184 1.239-.513.328-.328.513-.774.513-1.238V74.502c0-.464-.185-.91-.513-1.238-.329-.328-.774-.513-1.239-.513l-2.412.005z"/>
    <path fill="#454C5E" d="M150.819 78.198h7.755v5.503h-7.755v-5.503z"/>
    <path fill="#2C3040" d="M159.495 84.623h-9.599v-7.35h9.599v7.35zm-7.755-1.844h5.911v-3.662h-5.911v3.662z"/>
    <path fill="#454C5E" d="M155.903 121.153h-2.413c-1.475 0-2.671 1.196-2.671 2.671v13.959c0 1.475 1.196 2.671 2.671 2.671h2.413c1.475 0 2.671-1.196 2.671-2.671v-13.959c0-1.475-1.196-2.671-2.671-2.671z"/>
    <path fill="#2C3040" d="M155.903 141.377h-2.412c-.472 0-.94-.093-1.376-.274-.436-.181-.833-.446-1.166-.779-.334-.334-.599-.731-.78-1.167-.18-.436-.273-.904-.273-1.376v-13.953c0-.472.093-.94.273-1.376.181-.436.446-.833.78-1.167.333-.333.73-.598 1.166-.779.436-.181.904-.274 1.376-.274h2.412c.954 0 1.868.379 2.543 1.053.674.675 1.053 1.589 1.053 2.543v13.955c-.001.953-.38 1.867-1.054 2.541-.674.674-1.588 1.053-2.542 1.053zm-2.412-19.301c-.23 0-.458.045-.67.134-.213.088-.406.217-.569.379-.162.163-.291.356-.379.568-.088.213-.134.441-.134.671v13.955c0 .23.046.458.134.67.088.213.217.406.379.569.163.162.356.291.569.379.212.088.44.134.67.134h2.412c.465 0 .91-.185 1.239-.513.328-.329.513-.774.513-1.239v-13.955c0-.465-.185-.91-.513-1.239-.329-.328-.774-.513-1.239-.513h-2.412z"/>
    <path fill="#454C5E" d="M150.819 127.521h7.755v5.502h-7.755v-5.502z"/>
    <path fill="#2C3040" d="M159.495 133.945h-9.599v-7.346h9.599v7.346zm-7.755-1.844h5.911v-3.659h-5.911v3.659z"/>
    <path fill="#1F232E" d="M89.192 103.767c6.85 0 12.402-5.553 12.402-12.402 0-6.85-5.552-12.402-12.402-12.402S76.79 84.515 76.79 91.365s5.553 12.402 12.402 12.402z"/>
    <path fill="#2C3040" d="M89.192 104.689c-2.635 0-5.211-.782-7.402-2.246s-3.9-3.545-4.908-5.98c-1.008-2.434-1.272-5.113-.758-7.697.514-2.585 1.783-4.96 3.647-6.823 1.863-1.863 4.237-3.132 6.822-3.646 2.584-.514 5.263-.25 7.698.758 2.434 1.009 4.515 2.716 5.979 4.907 1.464 2.192 2.246 4.768 2.246 7.403-.004 3.532-1.409 6.919-3.907 9.417-2.498 2.497-5.884 3.903-9.417 3.907zm0-24.804c-2.27 0-4.49.673-6.378 1.934-1.888 1.262-3.36 3.055-4.228 5.153-.87 2.097-1.096 4.406-.653 6.633.442 2.227 1.536 4.272 3.141 5.877 1.606 1.606 3.651 2.699 5.878 3.142 2.227.443 4.536.216 6.633-.653 2.098-.869 3.89-2.34 5.152-4.228s1.935-4.108 1.935-6.378c-.003-3.044-1.214-5.962-3.366-8.114-2.152-2.152-5.07-3.363-8.114-3.366z"/>
    <path fill="#454C5E" d="M122.389 87.892L89.294 86.71c-.629-.028-1.257.071-1.846.293-.59.221-1.127.56-1.582.995-.455.435-.817.957-1.064 1.536-.248.579-.375 1.202-.375 1.831 0 .63.127 1.252.375 1.831.247.58.609 1.102 1.064 1.537.455.435.993.773 1.582.995.59.221 1.217.32 1.846.293l33.095-1.184c.9-.033 1.751-.413 2.376-1.06.624-.649.973-1.513.973-2.413 0-.9-.349-1.765-.973-2.413-.625-.647-1.476-1.028-2.376-1.06v.002z"/>
    <path fill="#454C5E" d="M89.126 96.947c-1.112-.001-2.198-.334-3.12-.957-.921-.622-1.636-1.506-2.052-2.537-.416-1.031-.514-2.163-.283-3.251.232-1.088.783-2.081 1.584-2.854.54-.52 1.178-.926 1.878-1.194.7-.269 1.447-.394 2.196-.367l33.096 1.183c1.141.037 2.222.517 3.017 1.337.794.82 1.238 1.917 1.238 3.058 0 1.142-.444 2.239-1.238 3.059-.795.82-1.876 1.3-3.017 1.336l-33.096 1.184c-.066.002-.134.003-.203.003zm0-9.32c-.497-.001-.99.097-1.448.289-.459.192-.874.473-1.223.828-.349.354-.623.775-.807 1.237-.184.462-.274.955-.265 1.453.009.497.117.987.318 1.442.2.455.49.865.852 1.206.361.342.787.608 1.253.782.465.175.961.255 1.458.236l33.095-1.183c.662-.022 1.29-.3 1.751-.777.461-.476.719-1.113.719-1.776 0-.662-.258-1.3-.719-1.775-.461-.477-1.089-.755-1.751-.777L89.264 87.63l-.138-.002zM109.287 139.57c-2.628.001-5.196-.778-7.381-2.238-2.185-1.459-3.888-3.534-4.894-5.961-1.006-2.428-1.27-5.099-.757-7.676.512-2.577 1.777-4.945 3.635-6.803 1.858-1.858 4.225-3.124 6.802-3.636 2.577-.513 5.248-.25 7.676.755s4.503 2.708 5.963 4.892c1.46 2.185 2.239 4.754 2.239 7.381-.004 3.522-1.404 6.899-3.894 9.39-2.491 2.49-5.867 3.892-9.389 3.896zm0-24.727c-2.263-.001-4.475.67-6.357 1.927-1.882 1.257-3.349 3.044-4.215 5.135-.866 2.09-1.093 4.391-.652 6.61.442 2.22 1.531 4.259 3.131 5.859 1.6 1.6 3.639 2.69 5.858 3.132 2.22.441 4.52.215 6.611-.651s3.878-2.333 5.135-4.214c1.257-1.882 1.929-4.094 1.929-6.357-.004-3.033-1.21-5.941-3.355-8.086-2.144-2.145-5.052-3.351-8.085-3.355z"/>
    <path stroke="#2C3040" stroke-dasharray="1 5" stroke-width="3" d="M114.607 140.066c-1.471.555-3.034.871-4.631.926l-.051-1.5c-.141.005-.282.008-.424.008-.213 0-.425-.005-.637-.016l-.074 1.499c-2.381-.117-4.697-.819-6.743-2.045l.771-1.287c-.182-.109-.362-.223-.539-.341-.177-.118-.351-.241-.522-.367l-.893 1.205c-1.916-1.421-3.451-3.291-4.471-5.447l1.356-.641c-.091-.192-.177-.387-.259-.584-.081-.197-.158-.395-.23-.595l-1.412.506c-.803-2.245-1.04-4.654-.691-7.013l1.484.22c.03-.21.067-.42.108-.629.042-.209.089-.416.14-.622l-1.455-.365c.58-2.313 1.72-4.448 3.321-6.214l1.112 1.007c.142-.158.289-.312.44-.462.15-.151.304-.298.462-.44l-1.008-1.112c1.767-1.601 3.901-2.743 6.214-3.322l.365 1.455c.206-.052.414-.098.623-.14.209-.042.418-.078.628-.109l-.22-1.484c2.359-.35 4.768-.113 7.013.69l-.506 1.413c.2.071.399.148.596.229.197.082.391.168.583.259l.641-1.356c2.156 1.019 4.027 2.554 5.448 4.469l-1.205.894c.127.171.249.345.368.522.118.177.232.357.341.539l1.287-.771c1.226 2.045 1.928 4.361 2.045 6.742l-1.498.074c.011.212.016.425.016.638 0 .142-.003.283-.007.424l1.499.05c-.054 1.597-.371 3.16-.925 4.631l-1.404-.529c-.1.265-.209.527-.326.786l1.366.619c-.649 1.432-1.532 2.76-2.624 3.926l-1.095-1.025c-.097.103-.195.205-.296.305-.1.101-.202.2-.305.296l1.025 1.095c-1.165 1.092-2.493 1.975-3.925 2.625l-.62-1.366c-.258.117-.52.226-.786.326l.53 1.404z"/>
    <circle cx="109" cy="126" r="7" fill="#454C5E"/>
</svg>
