<svg xmlns="http://www.w3.org/2000/svg" width="771" height="201" fill="none" viewBox="0 0 771 201">
    <path fill="url(#paint0_linear)" d="M0 8H771V191H0z"/>
    <g opacity=".5">
        <path fill="url(#paint1_linear)" d="M0 48.582H112.331V145H0z"/>
        <path fill="#2C3040" d="M0 0H65.15V65.15H0z" transform="matrix(.8621 -.50673 .8621 .50673 0 49.012)"/>
    </g>
    <g opacity=".5">
        <path fill="url(#paint2_linear)" d="M165.004 57.227l92.323 20v76h-92.323v-96z"/>
        <path fill="#2C3040" d="M165.004 57.238l36.522-13.013 56.166 33.013-36.522 13.013-56.166-33.013z"/>
    </g>
    <g opacity=".5">
        <path fill="url(#paint3_linear)" d="M634.479 56l92.323 28.125V191h-92.323V56z"/>
        <path fill="#2C3040" d="M634.479 52.855l36.378-20.27 55.945 51.424-36.379 20.271-55.944-51.425z"/>
    </g>
    <g opacity=".5">
        <path fill="url(#paint4_linear)" d="M511.709 29.27l62.611 21.21v80.602h-62.611V29.269z"/>
        <path fill="#2C3040" d="M511.709 28.285l24.768-13.801 38.091 35.012-24.769 13.801-38.09-35.012z"/>
    </g>
    <path fill="url(#paint5_linear)" d="M47.145 107H216.077V201H47.145z"/>
    <path fill="url(#paint6_linear)" d="M131.611 107H216.077V201H131.611z"/>
    <path fill="#2C3040" d="M0 0H97.977V97.977H0z" transform="scale(1.2192 .71662) rotate(-45 200.66 28.43)"/>
    <ellipse cx="140.647" cy="125.995" fill="url(#paint7_radial)" opacity=".6" rx="64.59" ry="41.929" transform="rotate(-39.247 140.647 125.995)"/>
    <path fill="#151820" d="M112.203 101.48H82l27.234-45.464L139.5 33l.1 8-27.397 60.48z"/>
    <path fill="#242730" d="M82 102v-9h30v9H82z"/>
    <path fill="#151820" d="M182.799 112.999h-77.76v-5.982h43.213L126.269 79.21V71.27l15.666-27.39 40.864 69.12z"/>
    <path fill="url(#paint8_linear)" d="M112.203 93.48H82l27.234-45.464L139.6 33l-27.397 60.48z"/>
    <path fill="url(#paint9_linear)" d="M182.799 104.999h-77.76v-5.983h43.213L126.269 71.21l15.666-35.331 40.864 69.12z"/>
    <path fill="#242730" d="M105 113v-8h77.675v8H105z"/>
    <defs>
        <linearGradient id="paint0_linear" x1="288.5" x2="796.979" y1="178.459" y2="5.301" gradientUnits="userSpaceOnUse">
            <stop stop-color="#151820"/>
            <stop offset="1" stop-color="#2C3040"/>
        </linearGradient>
        <linearGradient id="paint1_linear" x1="56.166" x2="56.166" y1="-16.104" y2="125.98" gradientUnits="userSpaceOnUse">
            <stop stop-color="#2C3040"/>
            <stop offset="1" stop-color="#151820"/>
        </linearGradient>
        <linearGradient id="paint2_linear" x1="211.166" x2="211.166" y1="-7.18" y2="134.289" gradientUnits="userSpaceOnUse">
            <stop stop-color="#2C3040"/>
            <stop offset="1" stop-color="#151820"/>
        </linearGradient>
        <linearGradient id="paint3_linear" x1="680.64" x2="680.64" y1="-34.571" y2="164.369" gradientUnits="userSpaceOnUse">
            <stop stop-color="#2C3040"/>
            <stop offset="1" stop-color="#151820"/>
        </linearGradient>
        <linearGradient id="paint4_linear" x1="543.015" x2="543.015" y1="-39.036" y2="110.998" gradientUnits="userSpaceOnUse">
            <stop stop-color="#2C3040"/>
            <stop offset="1" stop-color="#151820"/>
        </linearGradient>
        <linearGradient id="paint5_linear" x1="131.611" x2="131.611" y1="-103.541" y2="197.163" gradientUnits="userSpaceOnUse">
            <stop stop-color="#2C3040"/>
            <stop offset="1" stop-color="#151820"/>
        </linearGradient>
        <linearGradient id="paint6_linear" x1="173.844" x2="173.844" y1="-103.541" y2="197.163" gradientUnits="userSpaceOnUse">
            <stop stop-color="#575D78"/>
            <stop offset="1" stop-color="#151820"/>
        </linearGradient>
        <linearGradient id="paint8_linear" x1="110.8" x2="110.8" y1="33" y2="93.48" gradientUnits="userSpaceOnUse">
            <stop stop-color="#D7D9EA"/>
            <stop offset="1" stop-color="#8792CE"/>
        </linearGradient>
        <linearGradient id="paint9_linear" x1="143.919" x2="143.919" y1="35.879" y2="104.999" gradientUnits="userSpaceOnUse">
            <stop stop-color="#F3EEE0"/>
            <stop offset="1" stop-color="#ABB2DB"/>
        </linearGradient>
        <radialGradient id="paint7_radial" cx="0" cy="0" r="1" gradientTransform="matrix(0 31.7917 -48.9733 0 140.647 127.017)" gradientUnits="userSpaceOnUse">
            <stop offset=".307" stop-color="#151820"/>
            <stop offset="1" stop-color="#1B1E28" stop-opacity="0"/>
        </radialGradient>
    </defs>
</svg>
