<svg xmlns="http://www.w3.org/2000/svg" width="31" height="45" fill="none" viewBox="0 0 31 45">
    <path fill="url(#paint0_linear)" d="M30.513 36c0 2.21-1.791 4-4 4H4c-2.21 0-4-1.79-4-4V4c0-2.21 1.79-4 4-4h17.61c.006 0 5.298 5.296 7.723 7.72.755.756 1.18 1.78 1.18 2.85V36z"/>
    <path fill="url(#paint1_linear)" d="M30.514 8.893c-2.606-2.583.16.159-8.978-8.893h-6.407v40h15.385V8.893z"/>
    <path fill="#9CA4D1" d="M21.538 0v8.97l8.974.004L21.538 0z"/>
    <path fill="url(#paint2_linear)" d="M18.59 44.806l-3.408-2.614-3.408 2.614c-.135.104-.298.17-.47.189-.174.02-.349-.008-.506-.078-.157-.07-.29-.182-.382-.32-.093-.14-.143-.3-.143-.465V31.91h9.819v12.222c0 .164-.05.325-.143.464-.092.139-.225.25-.382.32-.157.071-.332.098-.505.079-.173-.02-.336-.085-.471-.188z"/>
    <path fill="url(#paint3_linear)" d="M22.815 29.29l.3-1.317c.039-.174.039-.354 0-.527-.04-.174-.117-.336-.228-.475l-.838-1.057-.3-1.318c-.04-.173-.117-.336-.227-.475-.11-.139-.25-.251-.41-.328l-1.212-.587-.838-1.056c-.11-.14-.251-.252-.41-.329-.16-.077-.335-.117-.512-.117h-1.345l-1.212-.587c-.16-.077-.334-.117-.51-.117-.178 0-.353.04-.512.117l-1.212.587h-1.345c-.177 0-.352.04-.512.117-.16.077-.3.19-.41.329l-.838 1.056-1.212.587c-.16.077-.3.19-.41.329-.11.139-.188.3-.227.474l-.3 1.318-.838 1.057c-.11.139-.188.301-.227.475-.04.173-.04.353 0 .527l.299 1.317-.3 1.318c-.039.174-.039.354 0 .527.04.174.118.336.228.475l.839 1.057.299 1.318c.04.173.117.335.227.474.11.14.25.252.41.329l1.212.586.839 1.057c.11.14.25.251.41.329.16.077.334.117.511.117h1.346l1.211.586c.16.078.334.118.511.118.178 0 .352-.04.512-.118l1.212-.586h1.344c.177 0 .352-.04.511-.117.16-.078.3-.19.41-.329l.839-1.057 1.212-.586c.16-.077.3-.19.41-.329.11-.139.188-.301.227-.475l.3-1.318.838-1.056c.11-.14.188-.302.228-.475.04-.174.04-.354 0-.527l-.3-1.318z"/>
    <path fill="#F6F1E1" d="M15.291 32.778c1.928 0 3.491-1.563 3.491-3.49 0-1.928-1.563-3.491-3.49-3.491-1.928 0-3.491 1.563-3.491 3.49 0 1.928 1.563 3.491 3.49 3.491z" opacity=".5"/>
    <defs>
        <linearGradient id="paint0_linear" x1="15.256" x2="15.256" y1="0" y2="40" gradientUnits="userSpaceOnUse">
            <stop stop-color="#CCCDD9"/>
            <stop offset="1" stop-color="#7986CB"/>
        </linearGradient>
        <linearGradient id="paint1_linear" x1="22.821" x2="22.821" y1="39.996" y2="0" gradientUnits="userSpaceOnUse">
            <stop stop-color="#9FA8DA"/>
            <stop offset="1" stop-color="#FFF8E1"/>
        </linearGradient>
        <linearGradient id="paint2_linear" x1="15.183" x2="15.183" y1="45" y2="31.91" gradientUnits="userSpaceOnUse">
            <stop stop-color="#9FA8DA"/>
            <stop offset="1" stop-color="#FFF8E1"/>
        </linearGradient>
        <linearGradient id="paint3_linear" x1="15.072" x2="15.072" y1="37.579" y2="21" gradientUnits="userSpaceOnUse">
            <stop stop-color="#9FA8DA"/>
            <stop offset="1" stop-color="#FFF8E1"/>
        </linearGradient>
    </defs>
</svg>
