<svg xmlns="http://www.w3.org/2000/svg" width="40" height="40" fill="none" viewBox="0 0 40 40">
    <path fill="url(#paint0_linear)" d="M24.536 40h-9.413c-.647 0-1.172-.525-1.172-1.172v-2.523c0-2.72-2.943-4.423-5.302-3.061l-2.184 1.261c-.56.323-1.278.132-1.601-.429L.157 25.924c-.323-.56-.131-1.278.429-1.601L2.77 23.06c2.357-1.36 2.359-4.76 0-6.122L.586 15.677c-.56-.324-.752-1.04-.429-1.6l4.707-8.153c.323-.56 1.04-.753 1.6-.43L8.65 6.757c2.357 1.36 5.302-.338 5.302-3.062V1.172C13.95.525 14.475 0 15.123 0h9.412c.648 0 1.172.525 1.172 1.172v2.522c0 2.72 2.944 4.424 5.302 3.062l2.185-1.261c.56-.323 1.277-.132 1.6.429l4.707 8.152c.324.56.132 1.277-.429 1.601l-2.184 1.262c-2.356 1.36-2.358 4.76 0 6.122l2.184 1.262c.56.324.753 1.04.43 1.6l-4.707 8.153c-.323.56-1.04.753-1.601.43l-2.185-1.262c-2.355-1.36-5.301.338-5.301 3.062v2.522c0 .647-.525 1.172-1.172 1.172z"/>
    <path fill="url(#paint1_linear)" d="M39.07 24.323l-2.184-1.261c-2.358-1.362-2.357-4.763 0-6.124l2.184-1.26c.56-.324.752-1.041.429-1.602l-4.706-8.153c-.324-.56-1.041-.752-1.601-.429l-2.184 1.262c-2.36 1.362-5.303-.341-5.303-3.062V1.172C25.705.525 25.181 0 24.533 0h-4.706v40h4.706c.648 0 1.172-.525 1.172-1.172v-2.523c0-2.723 2.946-4.421 5.303-3.061l2.184 1.262c.56.323 1.277.13 1.6-.43l4.707-8.152c.323-.56.132-1.278-.429-1.601z"/>
    <path fill="#454C5E" d="M20 31c-6.066 0-11-4.934-11-11S13.934 9 20 9c6.064 0 10.998 4.934 10.998 11s-4.934 11-10.999 11z"/>
    <path fill="url(#paint2_linear)" d="M20.156 19.55c2.063 0 3.736-1.673 3.736-3.736s-1.673-3.736-3.736-3.736-3.736 1.673-3.736 3.736 1.672 3.736 3.736 3.736z"/>
    <path fill="url(#paint3_linear)" d="M27.353 25.606c0-3.344-3.222-6.055-7.197-6.055-3.974 0-7.196 2.71-7.196 6.055 0 2.498 14.393 2.498 14.393 0z"/>
    <defs>
        <linearGradient id="paint0_linear" x1="19.829" x2="19.829" y1="0" y2="40" gradientUnits="userSpaceOnUse">
            <stop stop-color="#CCCDD9"/>
            <stop offset="1" stop-color="#7986CB"/>
        </linearGradient>
        <linearGradient id="paint1_linear" x1="29.742" x2="29.742" y1="39.996" y2="0" gradientUnits="userSpaceOnUse">
            <stop stop-color="#9FA8DA"/>
            <stop offset="1" stop-color="#FFF8E1"/>
        </linearGradient>
        <linearGradient id="paint2_linear" x1="20.156" x2="20.156" y1="19.549" y2="12.078" gradientUnits="userSpaceOnUse">
            <stop stop-color="#9FA8DA"/>
            <stop offset="1" stop-color="#FFF8E1"/>
        </linearGradient>
        <linearGradient id="paint3_linear" x1="20.156" x2="20.156" y1="27.478" y2="19.551" gradientUnits="userSpaceOnUse">
            <stop stop-color="#9FA8DA"/>
            <stop offset="1" stop-color="#FFF8E1"/>
        </linearGradient>
    </defs>
</svg>
