<svg xmlns="http://www.w3.org/2000/svg" width="139" height="30" fill="none" viewBox="0 0 139 30">
    <path fill="#fff" d="M41.84 21V9.02h-4.6V6.9h11.78v2.12h-4.6V21h-2.58zm11.029-4.36v-1.98h5.96v1.98h-5.96zM74.38 6.9h2.62L70.721 21h-2.1l-6.28-14.1h2.66l4.68 10.9 4.7-10.9zM90.951 21l-1.42-3.3h-6.86L81.25 21h-2.6l6.38-14.1h2.1L93.51 21h-2.56zm-7.44-5.3h5.16l-2.58-6-2.58 6zm20.426 5.48c-1.933 0-3.4-.5-4.4-1.5-1-1-1.5-2.46-1.5-4.38V6.9h2.52v8.54c0 1.213.287 2.133.86 2.76.573.613 1.413.92 2.52.92 1.093 0 1.927-.313 2.5-.94s.86-1.54.86-2.74V6.9h2.52v8.4c0 1.907-.5 3.367-1.5 4.38-1 1-2.46 1.5-4.38 1.5zm12.048-.18V6.9h2.58v11.98h6.58V21h-9.16zm15.114 0V9.02h-4.6V6.9h11.78v2.12h-4.6V21h-2.58z"/>
    <path fill="#fff" fill-rule="evenodd" d="M27.185 16.791l-.003-1.788.003-.002-.001-1.72c-.001-1.146-.002-2.292 0-3.439.012-.488-.054-.974-.194-1.441-.368-1.151-1.101-2-2.145-2.601L15.96.679c-1.585-.915-3.168-.9-4.752.015C8.273 2.387 5.336 4.082 2.4 5.781c-.283.16-.552.344-.803.551C.525 7.234.009 8.408.005 9.795-.001 11.765 0 13.735 0 15.708c0 1.44.001 2.882-.001 4.324 0 1.87.795 3.27 2.426 4.206 2.925 1.688 5.854 3.374 8.787 5.06.257.15.525.281.802.391 1.375.531 2.69.364 3.949-.363 2.962-1.706 5.923-3.415 8.88-5.127.26-.146.505-.315.735-.505 1.032-.867 1.59-1.976 1.603-3.326.008-1.193.006-2.385.003-3.577zM1.446 19.792v-4.836l.001-1.345c.002-1.177.003-2.355-.005-3.534-.005-1.126.394-2.061 1.273-2.777.203-.158.418-.3.644-.425 1.028-.594 2.058-1.187 3.087-1.78 1.745-1.006 3.49-2.012 5.232-3.025 1.294-.752 2.559-.747 3.852.007 2.781 1.614 5.567 3.222 8.357 4.824.849.488 1.47 1.155 1.73 2.109.087.312.134.634.139.958.009 3.361.015 6.72 0 10.08-.007 1.344-.65 2.345-1.81 3.018L20.49 25.06c-1.683.964-3.363 1.933-5.04 2.909-.973.564-1.988.707-3.049.31-.254-.1-.5-.218-.734-.357-1.108-.638-2.216-1.278-3.324-1.918-1.677-.968-3.353-1.936-5.033-2.9-.947-.543-1.585-1.305-1.8-2.383-.05-.307-.072-.618-.065-.929z" clip-rule="evenodd"/>
    <path fill="#fff" fill-rule="evenodd" d="M14.245 11.17c-.22-.003-.438-.004-.657-.004l.006.007c-.234 0-.468-.002-.701-.005-.466-.004-.932-.008-1.397.005-1.363.038-2.404 1.006-2.42 2.258-.018 1.278-.018 2.555 0 3.832 0 1.166.97 2.137 2.23 2.23.64.047 1.284.044 1.928.042h.626c.626.002 1.256-.008 1.885-.02 1.164-.023 2.38-.963 2.38-2.401v-3.563c0-1.417-1.233-2.423-2.567-2.385-.438.01-.876.007-1.313.003zm-3.918 5.457c-.01-.443-.021-.887-.024-1.331-.005-.534.001-1.065.027-1.593.04-.762.352-1.366 1.292-1.374 1.315-.014 2.63-.014 3.944 0 .781.008 1.285.467 1.296 1.194.02 1.215.02 2.429 0 3.64-.01.679-.457 1.105-1.184 1.182-.264.022-.53.03-.795.024-.98.003-1.959.003-2.937 0-.181.002-.363-.01-.543-.033-.415-.058-.834-.284-.976-.665-.068-.218-.1-.445-.092-.671l-.008-.373z" clip-rule="evenodd"/>
    <path fill="#fff" d="M13.77 6.28c.932.035 1.834.33 2.428 1.224.324.488.477 1.033.53 1.604.038.394-.165.643-.509.671-.344.028-.567-.175-.65-.56-.131-.606-.249-1.158-.81-1.532-.736-.49-1.879-.375-2.39.363-.349.504-.505 1.074-.606 1.661-.062.36-.104.725-.14 1.088-.015.156-.077.216-.237.232-.218.026-.433.063-.647.112-.22.047-.282.022-.28-.206.007-.265.029-.529.064-.791.073-.654.192-1.299.45-1.91.105-.259.234-.508.384-.745.536-.819 1.314-1.218 2.413-1.212z"/>
    <path fill="#E20074" d="M18.127 12.593l-.004-.021c1.404-.1 2.92.3 3.929 1.206 1.265 1.134 1.27 2.725 0 3.847-.971.857-2.175 1.2-3.511 1.21-.272 0-.279-.015-.25-.276.025-.14.039-.281.042-.422-.01-.212.105-.26.312-.261.69.01 1.37-.154 1.965-.471.331-.176.629-.399.882-.66.617-.665.586-1.492-.045-2.149-.687-.714-1.74-1.042-2.767-1.07-.095.006-.19-.013-.272-.057-.075-.066-.122-.154-.131-.248l-.15-.628zM8.96 18.823c-.705.06-1.353-.091-1.979-.351-.62-.243-1.162-.655-1.565-1.191-.741-1.011-.712-2.269.083-3.242.817-.989 2.284-1.566 3.551-1.472.051.253-.054.58-.134.842-.02.063-.153.113-.236.132-.359.077-.73.105-1.08.206-.493.139-.937.416-1.281.799-.641.71-.649 1.613-.008 2.327.457.514 1.055.79 1.716.926.21.045.425.07.64.078.2.005.266.086.262.28-.006.209.017.414.03.666zM10.482 20.232c.264.047.514.094.764.132.132.02.155.106.174.224.04.253.083.508.144.755.118.488.34.94.651 1.323.77.948 1.88.977 2.685.066.49-.556.732-1.232.828-1.974.047-.368.044-.368.393-.395.189-.015.378-.035.612-.056-.022.23-.032.44-.063.652-.147 1.004-.51 1.9-1.212 2.616-1.1 1.12-2.644 1.129-3.738 0-.842-.867-1.212-1.954-1.261-3.176.003-.056.01-.112.023-.167z"/>
    <path fill="#fff" d="M13.948 16.045c-.25.004-.484-.13-.609-.35-.125-.22-.121-.492.01-.709.13-.217.366-.345.617-.335.186.001.363.079.49.215.128.137.195.32.185.508-.002.182-.076.356-.207.482-.13.127-.305.195-.486.19z"/>
</svg>
