<svg xmlns="http://www.w3.org/2000/svg" width="220" height="220" fill="none" viewBox="0 0 220 220">
    <circle cx="110" cy="110" r="110" fill="#2C3040"/>
    <path fill="#1F232E" d="M140 170H62V50h96v102l-18 18z"/>
    <path fill="#1F232E" d="M136.875 164H67V56h86v91.8L136.875 164z"/>
    <path fill="#1F232E" d="M110 50v120h30l18-18V50h-48z"/>
    <path fill="#454C5E" d="M140 74H80v9h60v-9zM140 92H80v9h60v-9zM140 110H80v9h60v-9zM140 170v-18h18l-18 18zM86.1 154l-1.016-5.083L80 147.9l14.234-14.234 6.1 6.1L86.1 154z"/>
    <path fill="#454C5E" d="M103.066 154l1.017-5.083 5.083-1.017-14.234-14.234-6.1 6.1L103.066 154z"/>
    <path fill="#2C3040" d="M95 146c4.97 0 9-4.029 9-9s-4.03-9-9-9-9 4.029-9 9 4.03 9 9 9z"/>
</svg>
