<svg xmlns="http://www.w3.org/2000/svg" width="222" height="261" fill="none" viewBox="0 0 222 261">
    <path fill="url(#paint0_linear)" d="M0 121.245H222V260.64H0z"/>
    <path fill="url(#paint1_linear)" d="M111 121.245H222V260.64H111z"/>
    <path fill="#2C3040" d="M0 0H128.169V128.169H0z" transform="matrix(.86604 -.49997 .86604 .49997 0 122.08)"/>
    <path fill="#212530" d="M173 8.267C173 4.133 168.867 0 164.734 0H57.267C53.133 0 49 4.133 49 8.267V86.8h124V8.267zM49 86.8v8.267c0 4.133 4.133 8.266 8.267 8.266h107.467c4.133 0 8.266-4.133 8.266-8.266V86.8H49z"/>
    <path fill="#20242F" d="M94.473 107.467c0 8.267-8.267 8.267-16.534 8.267h66.134c-8.267 0-16.533 0-16.533-8.267v-4.133H94.473v4.133z"/>
    <path fill="#FAFAFA" d="M57.414 8.413h107.467V78.68H57.414V8.413z"/>
    <path fill="#31394D" d="M57.414 8.413h107.467V78.68H57.414V8.413z" opacity=".9"/>
    <path fill="#454C5E" d="M110.992 96.927c1.142 0 2.067-.925 2.067-2.066 0-1.142-.925-2.067-2.067-2.067-1.141 0-2.066.925-2.066 2.067 0 1.141.925 2.066 2.066 2.066z"/>
    <path fill="#20242F" d="M77.926 115.734h66.133v8.267H77.926v-8.267z"/>
    <path fill="#4CAF50" d="M124.728 30.613l-13.125-4.465c-.39-.135-.815-.135-1.205 0l-13.126 4.465c-.762.258-1.272.97-1.272 1.775v10.046c0 12.26 13.685 18.22 14.268 18.467.235.098.482.148.732.148s.498-.05.733-.15c.582-.248 14.268-6.205 14.268-18.465V32.388c0-.805-.51-1.517-1.273-1.775z"/>
    <path fill="#fff" d="M119.215 40.096l-6.875 8.75c-.42.535-1.042.878-1.72.943l-.245.012c-.592 0-1.172-.21-1.625-.602l-4.375-3.75c-1.05-.898-1.173-2.476-.272-3.526.897-1.047 2.477-1.167 3.522-.27l2.395 2.053 5.263-6.698c.852-1.085 2.422-1.277 3.51-.42 1.087.85 1.277 2.423.422 3.508z"/>
    <path fill="#429846" d="M111 26.049h-.047c-.188.005-.375.037-.555.1l-13.126 4.465c-.762.257-1.272.97-1.272 1.775v10.045c0 12.26 13.685 18.22 14.268 18.468.235.098.482.148.732.148V49.72c-.125.032-.252.054-.38.067l-.245.012c-.592 0-1.172-.21-1.625-.602l-4.375-3.75c-1.05-.898-1.172-2.475-.272-3.525.495-.575 1.195-.873 1.9-.873.575 0 1.152.198 1.622.6l2.395 2.053.98-1.245V26.049z"/>
    <defs>
        <linearGradient id="paint0_linear" x1="111" x2="111" y1="-190.972" y2="254.951" gradientUnits="userSpaceOnUse">
            <stop stop-color="#2C3040"/>
            <stop offset="1" stop-color="#151820"/>
        </linearGradient>
        <linearGradient id="paint1_linear" x1="166.5" x2="166.5" y1="-190.972" y2="254.951" gradientUnits="userSpaceOnUse">
            <stop stop-color="#575D78"/>
            <stop offset="1" stop-color="#151820"/>
        </linearGradient>
    </defs>
</svg>
