<svg xmlns="http://www.w3.org/2000/svg" width="220" height="220" fill="none" viewBox="0 0 220 220">
    <circle cx="110" cy="110" r="110" fill="#2C3040"/>
    <rect width="114.284" height="114.284" x="48" y="50" fill="#1F232E" rx="12"/>
    <rect width="97.142" height="97.142" x="56.57" y="58.571" fill="#454C5E" rx="4"/>
    <path fill="#1F232E" d="M62.285 64.284H147.998V149.997H62.285z"/>
    <path fill="#454C5E" d="M59.43 102.855H150.857V111.426H59.43z"/>
    <path fill="#1F232E" d="M59.43 164.285h22.857l-4.572 5.714H59.43v-5.714zM150.855 164.285h-22.856l4.571 5.714h18.285v-5.714zM167.283 58.571H172.99699999999999V155.713H167.283z"/>
    <path fill="#454C5E" d="M164.43 64.284H167.287V149.997H164.43z"/>
    <path fill="#2C3040" d="M144.428 80.284c0-8.836 7.163-16 16-16h3.999v85.713h-3.999c-8.837 0-16-7.163-16-16V80.284z"/>
    <ellipse cx="154.426" cy="92.142" fill="#1C1F29" rx="4.286" ry="4.287"/>
    <ellipse cx="154.426" cy="109.285" fill="#1C1F29" rx="4.286" ry="4.287"/>
    <ellipse cx="154.426" cy="126.427" fill="#1C1F29" rx="4.286" ry="4.287"/>
    <ellipse cx="154.426" cy="89.999" fill="#454C5E" rx="4.286" ry="4.287"/>
    <ellipse cx="154.426" cy="107.143" fill="#454C5E" rx="4.286" ry="4.287"/>
    <ellipse cx="154.426" cy="124.291" fill="#454C5E" rx="4.286" ry="4.287"/>
    <path fill="#454C5E" fill-rule="evenodd" d="M178.998 98.438h-5.906v9.908h9.906v-5.908c0-2.21-1.791-4-4-4zm3.998 9.909h-6.604l2.054 25.682c.083 1.039.951 1.84 1.994 1.84h.556c1.105 0 2-.895 2-2v-25.522z" clip-rule="evenodd"/>
</svg>
