<svg xmlns="http://www.w3.org/2000/svg" width="220" height="220" fill="none" viewBox="0 0 220 220">
    <circle cx="110" cy="110" r="110" fill="#2C3040"/>
    <path fill="#1F232E" d="M170 58c0-4-4-8-8-8H58c-4 0-8 4-8 8v76h120V58z"/>
    <path fill="#212530" d="M50 134v8c0 4 4 8 8 8h104c4 0 8-4 8-8v-8H50z"/>
    <path fill="#3A4153" d="M94.006 154c0 8-8 8-16 8h64c-8 0-16 0-16-8v-4h-32v4z"/>
    <path fill="#FAFAFA" d="M58.142 58.143h104v67.999h-104v-68z"/>
    <path fill="#31394D" d="M58.142 58.143h104v67.999h-104v-68z" opacity=".9"/>
    <g filter="url(#filter0_d)">
        <path fill="#E6E6E6" fill-rule="evenodd" d="M110.021 63.571c-7.911 0-14.324 6.414-14.324 14.325h3.58c0-5.933 4.811-10.743 10.744-10.743 5.934 0 10.744 4.81 10.744 10.743h3.581c0-7.911-6.413-14.325-14.325-14.325zM95.697 77.896h3.58v11.21h21.488v-11.21h3.581v11.21h-28.65v-11.21z" clip-rule="evenodd"/>
        <path fill="#fff" fill-rule="evenodd" d="M124.346 77.896c0-7.911-6.413-14.325-14.325-14.325v3.582c5.934 0 10.744 4.81 10.744 10.743h3.581zm0 0h-3.581v11.21h3.581v-11.21z" clip-rule="evenodd"/>
        <circle cx="110.021" cy="101.408" r="19.307" fill="#E20074"/>
        <path fill="#FF53AB" fill-opacity=".5" d="M110.021 120.715c10.664 0 19.308-8.644 19.308-19.307 0-10.663-8.644-19.307-19.308-19.307v38.614z"/>
        <circle cx="110.022" cy="101.407" r="6.228" fill="#333"/>
        <g clip-path="url(#clip0)">
            <path fill="#E8E8E8" d="M113.257 103.621h-.681v-.681c0-.038-.03-.069-.068-.069h-.409c-.037 0-.068.031-.068.069v.681h-.681c-.037 0-.068.03-.068.068v.409c0 .037.031.068.068.068h.681v.681c0 .037.031.068.068.068h.409c.038 0 .068-.031.068-.068v-.681h.681c.038 0 .069-.031.069-.068v-.409c0-.038-.031-.068-.069-.068zm-4.415-2.33c-.007-.074-.012-.149-.012-.225 0-.135.013-.267.037-.396.006-.03-.01-.062-.038-.075-.116-.052-.222-.123-.314-.213-.109-.105-.194-.232-.251-.372-.057-.14-.083-.29-.079-.44.008-.274.118-.534.309-.73.21-.215.493-.333.794-.33.271.003.534.108.732.294.067.063.125.133.174.207.017.027.05.038.079.028.15-.052.308-.089.471-.106.047-.005.075-.056.053-.099-.276-.547-.842-.925-1.496-.935-.943-.015-1.73.76-1.73 1.703 0 .534.246 1.011.632 1.324-.271.125-.52.298-.737.514-.466.466-.73 1.081-.747 1.737 0 .009.001.018.004.027.004.008.009.016.015.022.006.007.014.012.022.016.009.003.018.005.027.005h.478c.036 0 .067-.029.068-.066.016-.494.216-.956.568-1.307.25-.25.557-.424.891-.508.033-.009.055-.041.05-.075zm3.836-.225c0-.931-.748-1.688-1.676-1.703-.944-.014-1.73.76-1.73 1.703 0 .535.247 1.012.632 1.324-.273.127-.522.301-.735.515-.467.465-.731 1.08-.748 1.736 0 .009.001.018.005.026.003.009.008.017.014.023.007.007.014.012.023.015.008.004.017.006.026.006h.477c.036 0 .067-.029.068-.066.016-.494.216-.956.568-1.307.367-.367.854-.569 1.373-.569.94 0 1.703-.762 1.703-1.703zm-.932.771c-.206.206-.479.319-.771.319-.291 0-.564-.113-.77-.319-.103-.102-.184-.224-.239-.359-.055-.134-.082-.278-.081-.423.003-.279.115-.549.31-.749.204-.21.477-.326.769-.33.289-.002.569.11.775.312.211.207.327.484.327.778-.001.291-.114.565-.32.771z"/>
        </g>
    </g>
    <path fill="#454C5E" d="M109.993 143.8c1.105 0 2-.896 2-2 0-1.105-.895-2-2-2-1.104 0-2 .895-2 2 0 1.104.896 2 2 2zM77.993 162h64v8h-64v-8z"/>
    <defs>
        <clipPath id="clip0">
            <path fill="#fff" d="M0 0H8.719V8.719H0z" transform="translate(105.662 97.047)"/>
        </clipPath>
        <filter id="filter0_d" width="86.614" height="105.144" x="76.714" y="49.571" color-interpolation-filters="sRGB" filterUnits="userSpaceOnUse">
            <feFlood flood-opacity="0" result="BackgroundImageFix"/>
            <feColorMatrix in="SourceAlpha" values="0 0 0 0 0 0 0 0 0 0 0 0 0 0 0 0 0 0 127 0"/>
            <feOffset dx="10" dy="10"/>
            <feGaussianBlur stdDeviation="12"/>
            <feColorMatrix values="0 0 0 0 0 0 0 0 0 0 0 0 0 0 0 0 0 0 0.16 0"/>
            <feBlend in2="BackgroundImageFix" result="effect1_dropShadow"/>
            <feBlend in="SourceGraphic" in2="effect1_dropShadow" result="shape"/>
        </filter>
    </defs>
</svg>
