<svg xmlns="http://www.w3.org/2000/svg" width="222" height="261" fill="none" viewBox="0 0 222 261">
    <path fill="url(#paint0_linear)" d="M0 121.244H222V260.639H0z"/>
    <path fill="url(#paint1_linear)" d="M111 121.244H222V260.639H111z"/>
    <path fill="#2C3040" d="M0 0H128.169V128.169H0z" transform="matrix(.86604 -.49997 .86604 .49997 0 122.08)"/>
    <path fill="#212530" d="M173 8.267C173 4.133 168.867 0 164.734 0H57.267C53.133 0 49 4.133 49 8.267V86.8h124V8.267zM49 86.8v8.267c0 4.134 4.133 8.267 8.267 8.267h107.467c4.133 0 8.266-4.133 8.266-8.267v-8.266H49z"/>
    <path fill="#20242F" d="M94.473 107.467c0 8.267-8.267 8.267-16.534 8.267h66.134c-8.267 0-16.533 0-16.533-8.267v-4.133H94.473v4.133z"/>
    <path fill="#FAFAFA" d="M57.414 8.414h107.467v70.267H57.414V8.414z"/>
    <path fill="#31394D" d="M57.414 8.414h107.467v70.267H57.414V8.414z" opacity=".9"/>
    <path fill="#454C5E" d="M110.992 96.926c1.142 0 2.067-.925 2.067-2.066 0-1.142-.925-2.067-2.067-2.067-1.141 0-2.066.925-2.066 2.067 0 1.141.925 2.066 2.066 2.066z"/>
    <path fill="#20242F" d="M77.926 115.732h66.133v8.267H77.926v-8.267z"/>
    <path fill="#429846" d="M111.5 26C101.85 26 94 33.85 94 43.5S101.85 61 111.5 61c9.649 0 17.5-7.85 17.5-17.5S121.149 26 111.5 26z"/>
    <path fill="#4CAF50" d="M111.5 26v35c9.65 0 17.5-7.85 17.5-17.5S121.149 26 111.5 26z"/>
    <path fill="#fff" d="M113.082 50.435c-.447 0-.89-.063-1.318-.19-.058-.016-.117-.025-.176-.025-.06 0-.119.009-.176.026-.428.125-.871.189-1.316.189-1.304 0-2.543-.54-3.428-1.484v6.347c0 .25.132.48.348.606.215.127.481.129.699.007l3.875-2.172 3.874 2.172c.107.06.226.09.344.09.123 0 .246-.032.355-.097.216-.126.348-.357.348-.606v-6.349c-.885.947-2.125 1.486-3.429 1.486zM111.589 44.22c2.035 0 3.684-1.649 3.684-3.683s-1.649-3.684-3.684-3.684c-2.034 0-3.683 1.65-3.683 3.684 0 2.034 1.649 3.683 3.683 3.683z"/>
    <path fill="#fff" d="M119.722 38.912c.185-1.287-.402-2.573-1.495-3.276-.321-.206-.574-.498-.732-.845-.54-1.183-1.729-1.948-3.03-1.948-.381 0-.752-.11-1.072-.315-1.094-.704-2.508-.704-3.602-.001-.32.206-.691.315-1.072.315h-.001c-1.3 0-2.489.764-3.03 1.946-.158.347-.411.639-.732.845-1.094.703-1.681 1.989-1.497 3.276.055.377-.001.76-.159 1.107-.54 1.182-.34 2.582.512 3.565.249.288.41.64.464 1.017.185 1.287 1.11 2.356 2.358 2.722.366.108.691.317.94.605.852.983 2.208 1.382 3.456 1.015.365-.107.752-.107 1.118 0 .308.091.622.135.934.135.952 0 1.88-.408 2.521-1.148.25-.288.575-.497.941-.605 1.248-.366 2.174-1.434 2.359-2.721.054-.377.215-.729.465-1.017.851-.983 1.053-2.382.513-3.565-.158-.347-.213-.73-.159-1.107zm-8.132 6.715c-2.806 0-5.089-2.283-5.089-5.09 0-2.806 2.283-5.09 5.089-5.09 2.807 0 5.09 2.284 5.09 5.09 0 2.807-2.283 5.09-5.09 5.09z"/>
    <defs>
        <linearGradient id="paint0_linear" x1="111" x2="111" y1="-190.973" y2="254.95" gradientUnits="userSpaceOnUse">
            <stop stop-color="#2C3040"/>
            <stop offset="1" stop-color="#151820"/>
        </linearGradient>
        <linearGradient id="paint1_linear" x1="166.5" x2="166.5" y1="-190.973" y2="254.95" gradientUnits="userSpaceOnUse">
            <stop stop-color="#575D78"/>
            <stop offset="1" stop-color="#151820"/>
        </linearGradient>
    </defs>
</svg>
