<svg xmlns="http://www.w3.org/2000/svg" width="163" height="33" fill="none" viewBox="0 0 163 33">
    <path fill="#fff" d="M46.808 24V9.624h-5.52V7.08h14.136v2.544h-5.52V24h-3.096zm13.234-5.232v-2.376h7.152v2.376h-7.152zM85.857 7.08h3.144L81.465 24h-2.52L71.41 7.08h3.192l5.616 13.08 5.64-13.08zM105.741 24l-1.704-3.96h-8.232L94.1 24h-3.12l7.656-16.92h2.52L108.813 24h-3.072zm-8.928-6.36h6.192l-3.096-7.2-3.096 7.2zm24.511 6.576c-2.32 0-4.08-.6-5.28-1.8-1.2-1.2-1.8-2.952-1.8-5.256V7.08h3.024v10.248c0 1.456.344 2.56 1.032 3.312.688.736 1.696 1.104 3.024 1.104 1.312 0 2.312-.376 3-1.128.688-.752 1.032-1.848 1.032-3.288V7.08h3.024v10.08c0 2.288-.6 4.04-1.8 5.256-1.2 1.2-2.952 1.8-5.256 1.8zM135.782 24V7.08h3.096v14.376h7.896V24h-10.992zm18.136 0V9.624h-5.52V7.08h14.136v2.544h-5.52V24h-3.096z"/>
    <path fill="#fff" fill-rule="evenodd" d="M28.997 17.91c-.001-.635-.003-1.271-.003-1.907l.003-.002-.001-1.834c-.001-1.223-.002-2.446 0-3.669.013-.52-.057-1.039-.206-1.537-.393-1.228-1.176-2.134-2.29-2.775L17.026.724c-1.691-.975-3.379-.96-5.07.016-3.13 1.806-6.263 3.614-9.395 5.426-.302.17-.589.368-.857.588C.56 7.717.01 8.97.005 10.448 0 12.548 0 14.65.001 16.755 0 18.292.002 19.83 0 21.367c0 1.995.848 3.488 2.588 4.486 3.12 1.8 6.244 3.6 9.372 5.398.274.16.56.3.856.418 1.466.566 2.869.387 4.212-.388 3.16-1.82 6.318-3.642 9.473-5.468.276-.157.538-.337.783-.539 1.101-.925 1.697-2.108 1.71-3.549.009-1.271.006-2.543.003-3.815zM1.545 21.112v-5.158l.001-1.435c.002-1.256.003-2.512-.005-3.77-.006-1.2.42-2.199 1.357-2.962.217-.169.447-.32.688-.453 1.096-.634 2.194-1.267 3.292-1.9C8.74 4.363 10.6 3.29 12.459 2.21c1.38-.803 2.73-.797 4.109.007 2.967 1.722 5.938 3.437 8.914 5.145.905.52 1.567 1.233 1.845 2.25.093.332.143.676.149 1.022.01 3.585.016 7.168 0 10.751-.007 1.434-.694 2.502-1.932 3.22l-3.684 2.127c-1.795 1.028-3.587 2.062-5.377 3.102-1.037.602-2.12.756-3.251.33-.271-.104-.533-.231-.783-.38-1.183-.68-2.364-1.362-3.546-2.044-1.788-1.033-3.577-2.066-5.369-3.094-1.01-.58-1.69-1.392-1.919-2.542-.055-.328-.078-.66-.07-.991z" clip-rule="evenodd"/>
    <path fill="#fff" fill-rule="evenodd" d="M15.196 11.914c-.234-.002-.468-.004-.701-.004l.006.007c-.25 0-.498-.002-.747-.004-.497-.005-.994-.01-1.49.004-1.454.042-2.564 1.074-2.581 2.41-.02 1.363-.02 2.725 0 4.086 0 1.245 1.034 2.28 2.378 2.38.682.05 1.37.047 2.056.044h.668c.668.002 1.34-.008 2.01-.02 1.243-.026 2.54-1.029 2.54-2.562v-3.801c0-1.511-1.316-2.585-2.739-2.544-.466.011-.933.007-1.4.004zm-4.179 5.822c-.01-.473-.022-.946-.025-1.42-.005-.57.001-1.136.03-1.7.041-.812.375-1.456 1.377-1.465 1.403-.015 2.805-.015 4.207 0 .834.009 1.37.499 1.382 1.274.021 1.296.021 2.59 0 3.883-.01.723-.488 1.178-1.263 1.26-.282.023-.565.032-.848.026-1.045.003-2.089.003-3.132 0-.194.001-.387-.01-.58-.036-.442-.061-.889-.302-1.041-.71-.072-.232-.105-.473-.098-.715l-.009-.397z" clip-rule="evenodd"/>
    <path fill="#fff" d="M14.686 6.697c.994.038 1.956.353 2.59 1.307.346.52.509 1.101.566 1.71.04.421-.177.687-.544.716-.367.03-.604-.186-.693-.598-.14-.646-.265-1.235-.864-1.633-.785-.523-2.004-.4-2.55.387-.371.537-.538 1.146-.646 1.772-.066.384-.11.773-.149 1.16-.016.167-.083.23-.253.248-.232.027-.462.067-.69.12-.235.05-.3.022-.299-.22.008-.283.03-.565.068-.845.078-.697.206-1.385.48-2.036.113-.277.25-.543.41-.796.572-.873 1.402-1.299 2.574-1.292z"/>
    <path fill="#E20074" d="M19.337 13.434l-.005-.023c1.498-.106 3.115.32 4.19 1.287 1.35 1.21 1.356 2.907 0 4.104-1.035.913-2.319 1.279-3.745 1.291-.29 0-.297-.017-.265-.295.026-.15.04-.3.044-.45-.01-.226.112-.278.333-.279.737.01 1.462-.164 2.096-.502.353-.188.67-.425.94-.704.66-.71.625-1.591-.047-2.292-.733-.762-1.855-1.112-2.952-1.142-.101.007-.203-.014-.29-.06-.08-.071-.13-.165-.14-.265l-.16-.67zM9.556 20.08c-.752.063-1.443-.098-2.11-.375-.662-.259-1.24-.699-1.67-1.27-.79-1.079-.76-2.42.089-3.458.87-1.055 2.436-1.671 3.787-1.57.055.27-.057.617-.143.897-.021.068-.162.121-.251.141-.383.082-.778.112-1.153.22-.525.148-.999.444-1.366.852-.684.757-.692 1.721-.009 2.483.488.547 1.126.842 1.831.988.225.047.454.075.683.082.212.006.283.092.279.299-.007.223.019.442.033.71zM11.179 21.582c.281.05.548.1.815.14.14.022.165.114.186.24.042.27.088.54.153.805.126.52.364 1.003.695 1.411.82 1.011 2.005 1.043 2.863.07.523-.593.782-1.315.883-2.106.051-.392.047-.392.42-.42.201-.017.404-.038.653-.06-.024.244-.034.47-.067.695-.157 1.07-.544 2.026-1.294 2.79-1.172 1.196-2.82 1.204-3.986 0-.899-.924-1.293-2.084-1.346-3.387.004-.06.012-.12.025-.178z"/>
    <path fill="#fff" d="M14.876 17.116c-.268.004-.517-.14-.65-.374-.133-.235-.13-.525.01-.756.139-.232.391-.369.659-.357.198 0 .387.084.523.23.136.145.207.34.197.54-.002.195-.082.38-.22.515-.14.135-.327.208-.52.202z"/>
</svg>
